<?xml version="1.0" encoding="utf-8"?><svg width="656" height="633" viewBox="0 0 656 633" xmlns="http://www.w3.org/2000/svg" xmlns:xlink="http://www.w3.org/1999/xlink"><svg viewBox="0 0 27.02 27.02" width="16" height="16" id="address" xmlns="http://www.w3.org/2000/svg"><g fill="#8fd16b"><path d="M3.674 24.876s-.024.604.566.604l6.811-.008.01-5.581s-.096-.92.797-.92h2.826c1.056 0 .991.92.991.92l-.012 5.563h6.667c.749 0 .715-.752.715-.752V14.413l-9.396-8.358-9.975 8.358v10.463z"/><path d="M0 13.635s.847 1.561 2.694 0l11.038-9.338 10.349 9.28c2.138 1.542 2.939 0 2.939 0L13.732 1.54 0 13.635zm23.83-9.36h-2.662l.011 3.228 2.651 2.249z"/></g></svg><svg viewBox="0 0 203.089 203.089" width="16" height="16" id="avia" x="16" y="16" xmlns="http://www.w3.org/2000/svg"><path d="M196.162 6.689c-9.287-9.285-24.777-8.851-34.602.972l-33.63 35.953L21.226 11.673 3.214 29.685a5.053 5.053 0 0 0 0 7.147l86.517 47.617-33.98 36.866c-3.051 3.051-5.405 6.437-7.052 9.876l-36.112-9.347-11.232 11.233a3.812 3.812 0 0 0 0 5.39l39.743 20.161 3.6 3.597 20.163 39.745a3.813 3.813 0 0 0 5.392.004l11.231-11.231-9.51-36.747c3.329-1.64 6.604-3.937 9.563-6.895l37.003-34.115 47.954 87.124a5.053 5.053 0 0 0 7.147.002l18.01-18.012-32.152-107.426 35.691-33.385c9.82-9.825 10.255-25.317.972-34.6z" fill="#8fd16b"/></svg><svg width="12" height="12" viewBox="0 0 451.846 451.847" id="btn-arrow-d" x="32" y="32" xmlns="http://www.w3.org/2000/svg"><path d="M345.441 248.292L151.154 442.573c-12.359 12.365-32.397 12.365-44.75 0-12.354-12.354-12.354-32.391 0-44.744L278.318 225.92 106.409 54.017c-12.354-12.359-12.354-32.394 0-44.748 12.354-12.359 32.391-12.359 44.75 0l194.287 194.284c6.177 6.18 9.262 14.271 9.262 22.366 0 8.099-3.091 16.196-9.267 22.373z" fill="#868e96"/></svg><svg width="12" height="12" viewBox="0 0 451.846 451.847" id="btn-arrow-d-g" x="44" y="44" xmlns="http://www.w3.org/2000/svg"><path d="M345.441 248.292L151.154 442.573c-12.359 12.365-32.397 12.365-44.75 0-12.354-12.354-12.354-32.391 0-44.744L278.318 225.92 106.409 54.017c-12.354-12.359-12.354-32.394 0-44.748 12.354-12.359 32.391-12.359 44.75 0l194.287 194.284c6.177 6.18 9.262 14.271 9.262 22.366 0 8.099-3.091 16.196-9.267 22.373z" fill="#8FD16B"/></svg><svg viewBox="0 0 46.087 46.087" width="16" height="16" id="bus" x="56" y="56" xmlns="http://www.w3.org/2000/svg"><path d="M44.6 7.162h-3.379v11.625h1.351v5.338h-2.568V6.487A6.486 6.486 0 0 0 33.517 0H12.162a6.487 6.487 0 0 0-6.487 6.487v17.3h-2.23v-5.678h1.419V6.487H1.486v11.622h1.419v6.22h2.77v12.705a6.487 6.487 0 0 0 3.379 5.694v3.358h5.676V43.52h16.083v2.567h5.678v-3.294a6.477 6.477 0 0 0 3.513-5.76V24.664h3.109v-5.878H44.6V7.162zM15.407 1.35h15.136v3.516H15.407V1.35zm1.621 35.412H8.649V32.98h8.379v3.782zm20.273 0h-8.379V32.98h8.379v3.782zm0-12.164s-1.622 5.137-14.596 5.137c-12.976 0-14.328-5.137-14.328-5.137V6.756h28.924v17.842z" fill="#8fd16b"/></svg><svg viewBox="0 0 46.087 46.087" width="19" height="19" id="bus-light" x="72" y="72" xmlns="http://www.w3.org/2000/svg"><path d="M44.6 7.162h-3.379v11.625h1.351v5.338h-2.568V6.487A6.486 6.486 0 0 0 33.517 0H12.162a6.487 6.487 0 0 0-6.487 6.487v17.3h-2.23v-5.678h1.419V6.487H1.486v11.622h1.419v6.22h2.77v12.705a6.487 6.487 0 0 0 3.379 5.694v3.358h5.676V43.52h16.083v2.567h5.678v-3.294a6.477 6.477 0 0 0 3.513-5.76V24.664h3.109v-5.878H44.6V7.162zM15.407 1.35h15.136v3.516H15.407V1.35zm1.621 35.412H8.649V32.98h8.379v3.782zm20.273 0h-8.379V32.98h8.379v3.782zm0-12.164s-1.622 5.137-14.596 5.137c-12.976 0-14.328-5.137-14.328-5.137V6.756h28.924v17.842z" fill="#f1f1f1"/></svg><svg viewBox="0 0 26 26" width="16" height="16" id="checked" x="91" y="91" xmlns="http://www.w3.org/2000/svg"><path d="M.3 14c-.2-.2-.3-.5-.3-.7s.1-.5.3-.7l1.4-1.4c.4-.4 1-.4 1.4 0l.1.1 5.5 5.9c.2.2.5.2.7 0L22.8 3.3h.1c.4-.4 1-.4 1.4 0l1.4 1.4c.4.4.4 1 0 1.4l-16 16.6c-.2.2-.4.3-.7.3-.3 0-.5-.1-.7-.3L.5 14.3.3 14z" fill="#8fd16b"/></svg><svg viewBox="0 0 512 512" width="16" height="16" id="contacts-email" x="107" y="107" xmlns="http://www.w3.org/2000/svg"><path d="M511.609 197.601c-.001-.77-.173-1.933-.472-2.603a13.069 13.069 0 0 0-5.154-7.281l-73.292-50.948V82.153c0-7.24-5.872-13.112-13.112-13.112H335.26l-71.743-49.878a13.104 13.104 0 0 0-14.935-.026l-72.206 49.904h-83.95c-7.242 0-13.112 5.872-13.112 13.112v53.973L5.666 187.027c-3.623 2.504-5.583 6.507-5.645 10.6-.004.077-.021.15-.021.23l.391 284.235a13.118 13.118 0 0 0 3.852 9.266 13.114 13.114 0 0 0 9.26 3.827h.018l485.385-.667c7.24-.01 13.104-5.889 13.094-13.13l-.391-283.787zm-78.919-28.893l41.898 29.118-41.898 29.128v-58.246zM256.015 45.884l33.31 23.156h-66.812l33.502-23.156zM105.538 95.265h300.928v149.921L305.43 315.428l-41.194-31.954c-.064-.05-.119-.081-.181-.126-4.604-3.454-11.116-3.581-15.894.126l-41.493 32.185-101.13-69.893V95.265zm-26.224 72.738v59.64l-43.146-29.819 43.146-29.821zm-53.056 54.864l158.669 109.655L26.578 455.346l-.32-232.479zm25.617 246.042l204.324-158.484L459.79 468.348l-407.915.561zm275.269-136.638L485.42 222.235l.32 233.059-158.596-123.023z" data-original="#000000" class="ahactive-path" data-old_color="#8fd16b" fill="#8fd16b"/><path d="M344.77 147.713H167.234c-7.24 0-13.112 5.872-13.112 13.112s5.872 13.112 13.112 13.112H344.77c7.242 0 13.112-5.872 13.112-13.112s-5.87-13.112-13.112-13.112zm0 68.182H167.234c-7.24 0-13.112 5.872-13.112 13.112s5.872 13.112 13.112 13.112H344.77c7.242 0 13.112-5.872 13.112-13.112s-5.87-13.112-13.112-13.112z" data-original="#000000" class="ahactive-path" data-old_color="#8fd16b" fill="#8fd16b"/></svg><svg width="16" height="16" viewBox="0 0 246.118 246.118" id="contacts-fax" x="123" y="123" xmlns="http://www.w3.org/2000/svg"><path d="M20.488 214.394h3.535c-3.311-6.113-5.257-13.436-5.257-21.318v-80.283c0-7.881 1.942-15.21 5.257-21.314h-3.535C9.175 91.478 0 100.648 0 111.966v81.939c0 11.314 9.171 20.489 20.488 20.489zm55.508 0h149.643c11.313 0 20.479-9.175 20.479-20.488v-81.944c0-11.313-9.166-20.488-20.479-20.488h-12.456V50.493c0-15.623-11.947-28.327-26.64-28.327h-76.477c-14.68 0-26.628 12.708-26.628 28.327v40.979h-7.442c3.312 6.109 5.267 13.434 5.267 21.314v80.278c-.005 7.889-1.955 15.216-5.267 21.33zm129.136-14.416c-4.896 0-8.862-3.977-8.862-8.872 0-4.905 3.967-8.877 8.862-8.877a8.875 8.875 0 0 1 8.882 8.877c.008 4.895-3.967 8.872-8.882 8.872zm10.93-64.869v33.636H102.029v-33.636h114.033zM95.729 50.498c0-8.847 6.434-16.034 14.337-16.034h76.477c7.915 0 14.347 7.187 14.347 16.034v45.096c0 8.839-6.432 16.034-14.347 16.034h-76.477c-7.904 0-14.337-7.19-14.337-16.034V50.498zM50.008 223.952c13.077 0 23.671-13.828 23.671-30.877v-80.283c0-17.051-10.594-30.873-23.671-30.873-13.065 0-23.672 13.826-23.672 30.873v80.283c0 17.049 10.606 30.877 23.672 30.877z" data-original="#000000" class="aiactive-path" data-old_color="#8fd16b" fill="#8fd16b"/><path d="M109.469 55.186h77.064a4.778 4.778 0 0 0 4.779-4.779 4.777 4.777 0 0 0-4.779-4.779h-77.064a4.778 4.778 0 0 0-4.779 4.779 4.778 4.778 0 0 0 4.779 4.779zm0 22.126h77.064a4.779 4.779 0 1 0 0-9.558h-77.064a4.779 4.779 0 1 0 0 9.558zm0 22.127h77.064a4.779 4.779 0 1 0 0-9.558h-77.064a4.78 4.78 0 0 0 0 9.558z" data-original="#000000" class="aiactive-path" data-old_color="#8fd16b" fill="#8fd16b"/></svg><svg viewBox="0 0 480.56 480.56" width="16" height="16" id="contacts-phone" x="139" y="139" xmlns="http://www.w3.org/2000/svg"><path d="M365.354 317.9c-15.7-15.5-35.3-15.5-50.9 0-11.9 11.8-23.8 23.6-35.5 35.6-3.2 3.3-5.9 4-9.8 1.8-7.7-4.2-15.9-7.6-23.3-12.2-34.5-21.7-63.4-49.6-89-81-12.7-15.6-24-32.3-31.9-51.1-1.6-3.8-1.3-6.3 1.8-9.4 11.9-11.5 23.5-23.3 35.2-35.1 16.3-16.4 16.3-35.6-.1-52.1-9.3-9.4-18.6-18.6-27.9-28-9.6-9.6-19.1-19.3-28.8-28.8-15.7-15.3-35.3-15.3-50.9.1-12 11.8-23.5 23.9-35.7 35.5-11.3 10.7-17 23.8-18.2 39.1-1.9 24.9 4.2 48.4 12.8 71.3 17.6 47.4 44.4 89.5 76.9 128.1 43.9 52.2 96.3 93.5 157.6 123.3 27.6 13.4 56.2 23.7 87.3 25.4 21.4 1.2 40-4.2 54.9-20.9 10.2-11.4 21.7-21.8 32.5-32.7 16-16.2 16.1-35.8.2-51.8-19-19.1-38.1-38.1-57.2-57.1zm-19.1-79.7l36.9-6.3c-5.8-33.9-21.8-64.6-46.1-89-25.7-25.7-58.2-41.9-94-46.9l-5.2 37.1c27.7 3.9 52.9 16.4 72.8 36.3 18.8 18.8 31.1 42.6 35.6 68.8zm57.7-160.4c-42.6-42.6-96.5-69.5-156-77.8l-5.2 37.1c51.4 7.2 98 30.5 134.8 67.2 34.9 34.9 57.8 79 66.1 127.5l36.9-6.3c-9.7-56.2-36.2-107.2-76.6-147.7z" fill="#8fd16b"/></svg><svg viewBox="0 0 29.121 29.121" width="16" height="16" id="date" x="155" y="155" xmlns="http://www.w3.org/2000/svg"><g fill="#8fd16b"><path d="M21.706 6.146c1.116 0 2.02-.898 2.02-2.016V2.02c0-1.119-.903-2.02-2.02-2.02s-2.019.9-2.019 2.02v2.111a2.014 2.014 0 0 0 2.019 2.015z"/><path d="M28.882 3.494h-4.066v1.027a3.078 3.078 0 0 1-3.075 3.076 3.076 3.076 0 0 1-3.074-3.076V3.494h-8.205v1.027c0 1.695-1.379 3.076-3.076 3.076s-3.075-1.38-3.075-3.076V3.494L.208 3.443v25.678h26.656l2.049-.006-.031-25.621zm-2.02 23.582H2.26V10.672h24.604v16.404h-.002z"/><path d="M7.354 6.146A2.016 2.016 0 0 0 9.375 4.13V2.02C9.375.9 8.47 0 7.354 0S5.336.9 5.336 2.02v2.111c0 1.117.901 2.015 2.018 2.015zm3.114 6.727h3.231v2.852h-3.231zm5.224 0h3.234v2.852h-3.234zm4.845 0h3.231v2.852h-3.231zm-10.069 4.736h3.231v2.85h-3.231zm5.224 0h3.234v2.85h-3.234zm4.845 0h3.231v2.85h-3.231zm-10.069 4.83h3.231v2.85h-3.231zm-5.132-4.83h3.229v2.85H5.336zm0 4.83h3.229v2.85H5.336zm10.356 0h3.234v2.85h-3.234zm4.845 0h3.231v2.85h-3.231z"/></g></svg><svg viewBox="0 0 512.001 512.001" width="16" height="16" id="doc" x="171" y="171" xmlns="http://www.w3.org/2000/svg"><path d="M463.996 126.864L340.192 3.061A10.452 10.452 0 0 0 332.803 0H95.726C67.724 0 44.944 22.782 44.944 50.784v410.434c0 28.001 22.781 50.783 50.783 50.783h320.547c28.002 0 50.783-22.781 50.783-50.783V134.253a10.458 10.458 0 0 0-3.061-7.389zM343.255 35.679l88.127 88.126H373.14c-7.984 0-15.49-3.109-21.134-8.753-5.643-5.643-8.752-13.148-8.751-21.131V35.679zm102.903 425.538c0 16.479-13.406 29.885-29.884 29.885H95.726c-16.479 0-29.885-13.406-29.885-29.885V50.784c.001-16.479 13.407-29.886 29.885-29.886h226.631v73.021c-.002 13.565 5.28 26.318 14.871 35.909 9.592 9.592 22.345 14.874 35.911 14.874h73.018v316.515z" fill="#8fd16b"/><path d="M275.092 351.492h-4.678c-5.77 0-10.449 4.678-10.449 10.449s4.679 10.449 10.449 10.449h4.678c5.77 0 10.449-4.678 10.449-10.449s-4.679-10.449-10.449-10.449zm-38.482 0H135.118c-5.77 0-10.449 4.678-10.449 10.449s4.679 10.449 10.449 10.449H236.61c5.77 0 10.449-4.678 10.449-10.449s-4.678-10.449-10.449-10.449zm140.272-47.745H135.119c-5.77 0-10.449 4.678-10.449 10.449s4.679 10.449 10.449 10.449h241.763c5.77 0 10.449-4.678 10.449-10.449s-4.679-10.449-10.449-10.449zm0-47.747H135.119c-5.77 0-10.449 4.678-10.449 10.449s4.679 10.449 10.449 10.449h241.763c5.77 0 10.449-4.678 10.449-10.449S382.652 256 376.882 256zm0-47.745H135.119c-5.77 0-10.449 4.678-10.449 10.449s4.679 10.449 10.449 10.449h241.763c5.77 0 10.449-4.678 10.449-10.449s-4.679-10.449-10.449-10.449z" fill="#8fd16b"/></svg><svg viewBox="0 0 291.319 291.319" width="32" height="32" id="facebook" x="187" y="187" xmlns="http://www.w3.org/2000/svg"><path d="M145.659 0c80.45 0 145.66 65.219 145.66 145.66 0 80.45-65.21 145.659-145.66 145.659S0 226.109 0 145.66C0 65.219 65.21 0 145.659 0z" fill="#3b5998"/><path d="M163.394 100.277h18.772v-27.73h-22.067v.1c-26.738.947-32.218 15.977-32.701 31.763h-.055v13.847h-18.207v27.156h18.207v72.793h27.439v-72.793h22.477l4.342-27.156h-26.81v-8.366c0-5.335 3.55-9.614 8.603-9.614z" fill="#fff"/></svg><svg viewBox="0 0 112.196 112.196" width="32" height="32" id="google-plus" x="219" y="219" xmlns="http://www.w3.org/2000/svg"><circle cx="56.098" cy="56.097" r="56.098" fill="#dc4e41"/><path d="M19.531 58.608c-.199 9.652 6.449 18.863 15.594 21.867 8.614 2.894 19.205.729 24.937-6.648 4.185-5.169 5.136-12.06 4.683-18.498-7.377-.066-14.754-.044-22.12-.033-.012 2.628 0 5.246.011 7.874 4.417.122 8.835.066 13.252.155-1.115 3.821-3.655 7.377-7.51 8.757-7.443 3.28-16.94-1.005-19.282-8.813-2.827-7.477 1.801-16.5 9.442-18.675 4.738-1.667 9.619.21 13.673 2.673 2.054-1.922 3.976-3.976 5.864-6.052-4.606-3.854-10.525-6.217-16.61-5.698-11.939.142-22.387 11.164-21.934 23.091zm59.571-9.94c-.022 2.198-.045 4.407-.056 6.604-2.209.022-4.406.033-6.604.044v6.582c2.198.011 4.407.022 6.604.045.022 2.198.022 4.395.044 6.604 2.187 0 4.385-.011 6.582 0 .012-2.209.022-4.406.045-6.615l6.604-.033v-6.582c-2.197-.011-4.406-.022-6.604-.044-.012-2.198-.033-4.407-.045-6.604l-6.57-.001z" fill="#dc4e41"/><path d="M19.531 58.608c-.453-11.927 9.994-22.949 21.933-23.092 6.085-.519 12.005 1.844 16.61 5.698-1.889 2.077-3.811 4.13-5.864 6.052-4.054-2.463-8.935-4.34-13.673-2.673-7.642 2.176-12.27 11.199-9.442 18.675 2.342 7.808 11.839 12.093 19.282 8.813 3.854-1.38 6.395-4.936 7.51-8.757-4.417-.088-8.835-.033-13.252-.155-.011-2.628-.022-5.246-.011-7.874 7.366-.011 14.743-.033 22.12.033.453 6.439-.497 13.33-4.683 18.498-5.732 7.377-16.322 9.542-24.937 6.648-9.143-3.003-15.792-12.214-15.593-21.866zm59.571-9.94h6.57c.012 2.198.033 4.407.045 6.604 2.197.022 4.406.033 6.604.044v6.582l-6.604.033c-.022 2.209-.033 4.406-.045 6.615-2.197-.011-4.396 0-6.582 0-.021-2.209-.021-4.406-.044-6.604-2.197-.023-4.406-.033-6.604-.045v-6.582c2.198-.011 4.396-.022 6.604-.044.011-2.196.033-4.405.056-6.603z" fill="#fff"/></svg><svg viewBox="0 0 469.333 469.333" width="12" height="12" id="icon-boat" x="251" y="251" xmlns="http://www.w3.org/2000/svg"><path d="M62.825 384h1.173c34.133 0 64.533-18.773 85.333-42.667 20.8 23.893 51.2 42.667 85.333 42.667s64.533-18.773 85.333-42.667C340.905 365.227 371.092 384 405.332 384h1.173l40.427-142.613c1.813-5.44 1.28-11.413-1.28-16.533-2.667-5.12-7.253-8.96-12.8-10.56l-27.52-9.067v-98.56c0-23.573-19.093-42.667-42.667-42.667h-64V0h-128v64h-64c-23.573 0-42.667 19.093-42.667 42.667v98.56l-27.413 8.96c-5.547 1.707-10.133 5.44-12.8 10.56-2.667 5.12-3.093 11.093-1.28 16.533L62.825 384zm43.84-277.333h256v84.587l-128-41.92-128 41.92v-84.587zM319.998 398.4c-52.053 36.48-118.613 36.48-170.667 0-26.027 18.24-55.68 28.267-85.333 28.267H21.332v42.667h42.667c29.333 0 58.453-7.36 85.333-21.227 53.76 27.627 116.907 27.627 170.667 0 26.88 13.76 56 21.227 85.333 21.227h42.667v-42.667h-42.667c-29.654 0-59.307-10.027-85.334-28.267z" fill="#333"/></svg><svg viewBox="0 0 405.333 405.333" width="12" height="12" id="icon-bus" x="263" y="263" xmlns="http://www.w3.org/2000/svg"><path d="M202.667 0C108.373 0 32 10.667 32 85.333v213.333c0 18.88 8.32 35.627 21.333 47.36V384c0 11.733 9.6 21.333 21.333 21.333H96c11.84 0 21.333-9.6 21.333-21.333v-21.333H288V384c0 11.733 9.493 21.333 21.333 21.333h21.333c11.733 0 21.333-9.6 21.333-21.333v-37.973c13.013-11.733 21.333-28.48 21.333-47.36V85.333C373.333 10.667 296.96 0 202.667 0zm-96 320c-17.707 0-32-14.293-32-32s14.293-32 32-32 32 14.293 32 32-14.294 32-32 32zm192 0c-17.707 0-32-14.293-32-32s14.293-32 32-32 32 14.293 32 32-14.294 32-32 32zm32-128h-256V85.333h256V192z" fill="#333"/></svg><svg viewBox="0 0 14 14" width="12" height="12" id="icon-email" x="275" y="275" xmlns="http://www.w3.org/2000/svg"><g fill="#333"><path d="M7 9L5.268 7.484.316 11.729c.18.167.423.271.691.271h11.986c.267 0 .509-.104.688-.271L8.732 7.484 7 9z"/><path d="M13.684 2.271A1.007 1.007 0 0 0 12.993 2H1.007c-.267 0-.509.104-.689.273L7 8l6.684-5.729zM0 2.878v8.308l4.833-4.107zm9.167 4.201L14 11.186V2.875z"/></g></svg><svg viewBox="0 0 14 14" width="12" height="12" id="icon-email-g" x="287" y="287" xmlns="http://www.w3.org/2000/svg"><g fill="#888"><path d="M7 9L5.268 7.484.316 11.729c.18.167.423.271.691.271h11.986c.267 0 .509-.104.688-.271L8.732 7.484 7 9z"/><path d="M13.684 2.271A1.007 1.007 0 0 0 12.993 2H1.007c-.267 0-.509.104-.689.273L7 8l6.684-5.729zM0 2.878v8.308l4.833-4.107zm9.167 4.201L14 11.186V2.875z"/></g></svg><svg width="12" height="12" viewBox="0 0 460.298 460.297" id="icon-home" x="299" y="299" xmlns="http://www.w3.org/2000/svg"><g fill="#333"><path d="M230.149 120.939L65.986 256.274c0 .191-.048.472-.144.855-.094.38-.144.656-.144.852v137.041c0 4.948 1.809 9.236 5.426 12.847 3.616 3.613 7.898 5.431 12.847 5.431h109.63V303.664h73.097v109.64h109.629c4.948 0 9.236-1.814 12.847-5.435 3.617-3.607 5.432-7.898 5.432-12.847V257.981c0-.76-.104-1.334-.288-1.707L230.149 120.939z"/><path d="M457.122 225.438L394.6 173.476V56.989c0-2.663-.856-4.853-2.574-6.567-1.704-1.712-3.894-2.568-6.563-2.568h-54.816c-2.666 0-4.855.856-6.57 2.568-1.711 1.714-2.566 3.905-2.566 6.567v55.673l-69.662-58.245c-6.084-4.949-13.318-7.423-21.694-7.423-8.375 0-15.608 2.474-21.698 7.423L3.172 225.438c-1.903 1.52-2.946 3.566-3.14 6.136-.193 2.568.472 4.811 1.997 6.713l17.701 21.128c1.525 1.712 3.521 2.759 5.996 3.142 2.285.192 4.57-.476 6.855-1.998L230.149 95.817l197.57 164.741c1.526 1.328 3.521 1.991 5.996 1.991h.858c2.471-.376 4.463-1.43 5.996-3.138l17.703-21.125c1.522-1.906 2.189-4.145 1.991-6.716-.195-2.563-1.242-4.609-3.141-6.132z"/></g></svg><svg width="12" height="12" viewBox="0 0 460.298 460.297" id="icon-home-g" x="311" y="311" xmlns="http://www.w3.org/2000/svg"><g fill="#888"><path d="M230.149 120.939L65.986 256.274c0 .191-.048.472-.144.855-.094.38-.144.656-.144.852v137.041c0 4.948 1.809 9.236 5.426 12.847 3.616 3.613 7.898 5.431 12.847 5.431h109.63V303.664h73.097v109.64h109.629c4.948 0 9.236-1.814 12.847-5.435 3.617-3.607 5.432-7.898 5.432-12.847V257.981c0-.76-.104-1.334-.288-1.707L230.149 120.939z"/><path d="M457.122 225.438L394.6 173.476V56.989c0-2.663-.856-4.853-2.574-6.567-1.704-1.712-3.894-2.568-6.563-2.568h-54.816c-2.666 0-4.855.856-6.57 2.568-1.711 1.714-2.566 3.905-2.566 6.567v55.673l-69.662-58.245c-6.084-4.949-13.318-7.423-21.694-7.423-8.375 0-15.608 2.474-21.698 7.423L3.172 225.438c-1.903 1.52-2.946 3.566-3.14 6.136-.193 2.568.472 4.811 1.997 6.713l17.701 21.128c1.525 1.712 3.521 2.759 5.996 3.142 2.285.192 4.57-.476 6.855-1.998L230.149 95.817l197.57 164.741c1.526 1.328 3.521 1.991 5.996 1.991h.858c2.471-.376 4.463-1.43 5.996-3.138l17.703-21.125c1.522-1.906 2.189-4.145 1.991-6.716-.195-2.563-1.242-4.609-3.141-6.132z"/></g></svg><svg viewBox="0 0 27.442 27.442" width="12" height="12" id="icon-mobile" x="323" y="323" xmlns="http://www.w3.org/2000/svg"><path d="M19.494 0H7.948a1.997 1.997 0 0 0-1.997 1.999v23.446c0 1.102.892 1.997 1.997 1.997h11.546a1.998 1.998 0 0 0 1.997-1.997V1.999A1.999 1.999 0 0 0 19.494 0zm-8.622 1.214h5.7c.144 0 .261.215.261.481s-.117.482-.261.482h-5.7c-.145 0-.26-.216-.26-.482s.115-.481.26-.481zm2.85 24.255a1.275 1.275 0 1 1 0-2.55 1.275 1.275 0 0 1 0 2.55zm6.273-4.369H7.448V3.373h12.547V21.1z" fill="#333"/></svg><svg viewBox="0 0 578.106 578.106" width="12" height="12" id="icon-phone" x="335" y="335" xmlns="http://www.w3.org/2000/svg"><path d="M577.83 456.128c1.225 9.385-1.635 17.545-8.568 24.48l-81.396 80.781c-3.672 4.08-8.465 7.551-14.381 10.404-5.916 2.857-11.729 4.693-17.439 5.508-.408 0-1.635.105-3.676.309-2.037.203-4.689.307-7.953.307-7.754 0-20.301-1.326-37.641-3.979s-38.555-9.182-63.645-19.584c-25.096-10.404-53.553-26.012-85.376-46.818-31.823-20.805-65.688-49.367-101.592-85.68-28.56-28.152-52.224-55.08-70.992-80.783-18.768-25.705-33.864-49.471-45.288-71.299-11.425-21.828-19.993-41.616-25.705-59.364S4.59 177.362 2.55 164.51-.306 141.56.102 134.216c.408-7.344.612-11.424.612-12.24.816-5.712 2.652-11.526 5.508-17.442s6.324-10.71 10.404-14.382L98.022 8.756c5.712-5.712 12.24-8.568 19.584-8.568 5.304 0 9.996 1.53 14.076 4.59s7.548 6.834 10.404 11.322l65.484 124.236c3.672 6.528 4.692 13.668 3.06 21.42-1.632 7.752-5.1 14.28-10.404 19.584l-29.988 29.988c-.816.816-1.53 2.142-2.142 3.978s-.918 3.366-.918 4.59c1.632 8.568 5.304 18.36 11.016 29.376 4.896 9.792 12.444 21.726 22.644 35.802s24.684 30.293 43.452 48.653c18.36 18.77 34.68 33.354 48.96 43.76 14.277 10.4 26.215 18.053 35.803 22.949 9.588 4.896 16.932 7.854 22.031 8.871l7.648 1.531c.816 0 2.145-.307 3.979-.918 1.836-.613 3.162-1.326 3.979-2.143l34.883-35.496c7.348-6.527 15.912-9.791 25.705-9.791 6.938 0 12.443 1.223 16.523 3.672h.611l118.115 69.768c8.571 5.308 13.67 12.038 15.303 20.198z" fill="#333"/></svg><svg viewBox="0 0 578.106 578.106" width="12" height="12" id="icon-phone-g" x="347" y="347" xmlns="http://www.w3.org/2000/svg"><path d="M577.83 456.128c1.225 9.385-1.635 17.545-8.568 24.48l-81.396 80.781c-3.672 4.08-8.465 7.551-14.381 10.404-5.916 2.857-11.729 4.693-17.439 5.508-.408 0-1.635.105-3.676.309-2.037.203-4.689.307-7.953.307-7.754 0-20.301-1.326-37.641-3.979s-38.555-9.182-63.645-19.584c-25.096-10.404-53.553-26.012-85.376-46.818-31.823-20.805-65.688-49.367-101.592-85.68-28.56-28.152-52.224-55.08-70.992-80.783-18.768-25.705-33.864-49.471-45.288-71.299-11.425-21.828-19.993-41.616-25.705-59.364S4.59 177.362 2.55 164.51-.306 141.56.102 134.216c.408-7.344.612-11.424.612-12.24.816-5.712 2.652-11.526 5.508-17.442s6.324-10.71 10.404-14.382L98.022 8.756c5.712-5.712 12.24-8.568 19.584-8.568 5.304 0 9.996 1.53 14.076 4.59s7.548 6.834 10.404 11.322l65.484 124.236c3.672 6.528 4.692 13.668 3.06 21.42-1.632 7.752-5.1 14.28-10.404 19.584l-29.988 29.988c-.816.816-1.53 2.142-2.142 3.978s-.918 3.366-.918 4.59c1.632 8.568 5.304 18.36 11.016 29.376 4.896 9.792 12.444 21.726 22.644 35.802s24.684 30.293 43.452 48.653c18.36 18.77 34.68 33.354 48.96 43.76 14.277 10.4 26.215 18.053 35.803 22.949 9.588 4.896 16.932 7.854 22.031 8.871l7.648 1.531c.816 0 2.145-.307 3.979-.918 1.836-.613 3.162-1.326 3.979-2.143l34.883-35.496c7.348-6.527 15.912-9.791 25.705-9.791 6.938 0 12.443 1.223 16.523 3.672h.611l118.115 69.768c8.571 5.308 13.67 12.038 15.303 20.198z" fill="#888"/></svg><svg width="12" height="12" viewBox="0 0 510 510" id="icon-plane" x="359" y="359" xmlns="http://www.w3.org/2000/svg"><path d="M510 255c0-20.4-17.85-38.25-38.25-38.25H331.5L204 12.75h-51l63.75 204H76.5l-38.25-51H0L25.5 255 0 344.25h38.25l38.25-51h140.25l-63.75 204h51l127.5-204h140.25c20.4 0 38.25-17.85 38.25-38.25z" fill="#333"/></svg><svg width="40" height="16" viewBox="0 0 400.004 400.004" id="left-arrow" x="371" y="371" xmlns="http://www.w3.org/2000/svg"><path d="M382.688 182.686H59.116l77.209-77.214c6.764-6.76 6.764-17.726 0-24.485-6.764-6.764-17.73-6.764-24.484 0L5.073 187.757c-6.764 6.76-6.764 17.727 0 24.485l106.768 106.775a17.252 17.252 0 0 0 12.242 5.072c4.43 0 8.861-1.689 12.242-5.072 6.764-6.76 6.764-17.726 0-24.484l-77.209-77.218h323.572c9.562 0 17.316-7.753 17.316-17.315 0-9.562-7.753-17.314-17.316-17.314z" fill="#FFF"/></svg><svg width="13" height="13" viewBox="0 0 430.114 430.114" id="location" x="411" y="387" xmlns="http://www.w3.org/2000/svg"><path d="M356.208 107.051c-1.531-5.738-4.64-11.852-6.94-17.205C321.746 23.704 261.611 0 213.055 0 148.054 0 76.463 43.586 66.905 133.427v18.355c0 .766.264 7.647.639 11.089 5.358 42.816 39.143 88.32 64.375 131.136 27.146 45.873 55.314 90.999 83.221 136.106 17.208-29.436 34.354-59.259 51.17-87.933 4.583-8.415 9.903-16.825 14.491-24.857 3.058-5.348 8.9-10.696 11.569-15.672 27.145-49.699 70.838-99.782 70.838-149.104v-20.262c.001-5.347-6.627-24.081-7-25.234zm-141.963 92.142c-19.107 0-40.021-9.554-50.344-35.939-1.538-4.2-1.414-12.617-1.414-13.388v-11.852c0-33.636 28.56-48.932 53.406-48.932 30.588 0 54.245 24.472 54.245 55.06 0 30.587-25.305 55.051-55.893 55.051z" fill="#f0be25"/></svg><svg viewBox="0 0 382.117 382.117" width="16" height="16" id="mail" x="424" y="400" xmlns="http://www.w3.org/2000/svg"><path d="M336.764 45.945H45.354C20.346 45.945 0 65.484 0 89.5v203.117c0 24.016 20.346 43.555 45.354 43.555h291.41c25.008 0 45.353-19.539 45.353-43.555V89.5c0-24.016-20.345-43.555-45.353-43.555zm0 251.775H45.354c-3.676 0-6.9-2.384-6.9-5.103V116.359l131.797 111.27a15.014 15.014 0 0 0 9.676 3.538l22.259.001c3.536 0 6.974-1.257 9.677-3.539l131.803-111.274v176.264c-.002 2.717-3.227 5.101-6.902 5.101zM191.059 192.987L62.87 84.397h256.378l-128.189 108.59z"/></svg><svg viewBox="0 0 578.106 578.106" width="16" height="16" id="phone-black" x="440" y="416" xmlns="http://www.w3.org/2000/svg"><path d="M577.83 456.128c1.225 9.385-1.635 17.545-8.568 24.48l-81.396 80.781c-3.672 4.08-8.465 7.551-14.381 10.404-5.916 2.857-11.729 4.693-17.439 5.508-.408 0-1.635.105-3.676.309-2.037.203-4.689.307-7.953.307-7.754 0-20.301-1.326-37.641-3.979s-38.555-9.182-63.645-19.584c-25.096-10.404-53.553-26.012-85.376-46.818-31.823-20.805-65.688-49.367-101.592-85.68-28.56-28.152-52.224-55.08-70.992-80.783-18.768-25.705-33.864-49.471-45.288-71.299-11.425-21.828-19.993-41.616-25.705-59.364S4.59 177.362 2.55 164.51-.306 141.56.102 134.216c.408-7.344.612-11.424.612-12.24.816-5.712 2.652-11.526 5.508-17.442s6.324-10.71 10.404-14.382L98.022 8.756c5.712-5.712 12.24-8.568 19.584-8.568 5.304 0 9.996 1.53 14.076 4.59s7.548 6.834 10.404 11.322l65.484 124.236c3.672 6.528 4.692 13.668 3.06 21.42-1.632 7.752-5.1 14.28-10.404 19.584l-29.988 29.988c-.816.816-1.53 2.142-2.142 3.978s-.918 3.366-.918 4.59c1.632 8.568 5.304 18.36 11.016 29.376 4.896 9.792 12.444 21.726 22.644 35.802s24.684 30.293 43.452 48.653c18.36 18.77 34.68 33.354 48.96 43.76 14.277 10.4 26.215 18.053 35.803 22.949 9.588 4.896 16.932 7.854 22.031 8.871l7.648 1.531c.816 0 2.145-.307 3.979-.918 1.836-.613 3.162-1.326 3.979-2.143l34.883-35.496c7.348-6.527 15.912-9.791 25.705-9.791 6.938 0 12.443 1.223 16.523 3.672h.611l118.115 69.768c8.571 5.308 13.67 12.038 15.303 20.198z" fill="#010002"/></svg><svg width="16" height="16" viewBox="0 0 348.077 348.077" id="phone-receiver" x="456" y="432" xmlns="http://www.w3.org/2000/svg"><path d="M340.273 275.083l-53.755-53.761c-10.707-10.664-28.438-10.34-39.518.744l-27.082 27.076a792.327 792.327 0 0 1-5.344-2.973c-17.102-9.476-40.509-22.464-65.14-47.113-24.704-24.701-37.704-48.144-47.209-65.257-1.003-1.813-1.964-3.561-2.913-5.221l18.176-18.149 8.936-8.947c11.097-11.1 11.403-28.826.721-39.521L73.39 8.194c-10.682-10.68-28.421-10.356-39.518.744l-15.15 15.237.414.411c-5.08 6.482-9.325 13.958-12.484 22.02C3.74 54.28 1.927 61.603 1.098 68.941-6 127.785 20.89 181.564 93.866 254.541c100.875 100.868 182.167 93.248 185.674 92.876 7.638-.913 14.958-2.738 22.397-5.627 7.992-3.122 15.463-7.361 21.941-12.43l.331.294 15.348-15.029c11.074-11.098 11.393-28.83.716-39.542z" fill="#FFDA44"/></svg><svg width="19" height="19" viewBox="0 0 510 510" id="plane" x="472" y="448" xmlns="http://www.w3.org/2000/svg"><path d="M510 255c0-20.4-17.85-38.25-38.25-38.25H331.5L204 12.75h-51l63.75 204H76.5l-38.25-51H0L25.5 255 0 344.25h38.25l38.25-51h140.25l-63.75 204h51l127.5-204h140.25c20.4 0 38.25-17.85 38.25-38.25z" fill="#f1f1f1"/></svg><svg viewBox="0 0 250.313 250.313" width="16" height="16" id="search-tour" x="491" y="467" xmlns="http://www.w3.org/2000/svg"><path d="M244.186 214.604l-54.379-54.378c-.289-.289-.628-.491-.93-.76 10.7-16.231 16.945-35.66 16.945-56.554C205.822 46.075 159.747 0 102.911 0S0 46.075 0 102.911c0 56.835 46.074 102.911 102.91 102.911 20.895 0 40.323-6.245 56.554-16.945.269.301.47.64.759.929l54.38 54.38c8.169 8.168 21.413 8.168 29.583 0 8.168-8.169 8.168-21.413 0-29.582zm-141.275-44.458c-37.134 0-67.236-30.102-67.236-67.235 0-37.134 30.103-67.236 67.236-67.236 37.132 0 67.235 30.103 67.235 67.236s-30.103 67.235-67.235 67.235z" fill="#8fd16b" fill-rule="evenodd" clip-rule="evenodd"/></svg><svg viewBox="0 0 250.313 250.313" width="16" height="16" id="searcher" x="507" y="483" xmlns="http://www.w3.org/2000/svg"><path d="M244.186 214.604l-54.379-54.378c-.289-.289-.628-.491-.93-.76 10.7-16.231 16.945-35.66 16.945-56.554C205.822 46.075 159.747 0 102.911 0S0 46.075 0 102.911c0 56.835 46.074 102.911 102.91 102.911 20.895 0 40.323-6.245 56.554-16.945.269.301.47.64.759.929l54.38 54.38c8.169 8.168 21.413 8.168 29.583 0 8.168-8.169 8.168-21.413 0-29.582zm-141.275-44.458c-37.134 0-67.236-30.102-67.236-67.235 0-37.134 30.103-67.236 67.236-67.236 37.132 0 67.235 30.103 67.235 67.236s-30.103 67.235-67.235 67.235z" fill="#FFF" fill-rule="evenodd" clip-rule="evenodd"/></svg><svg viewBox="0 0 512 512" width="16" height="16" id="ship" x="523" y="499" xmlns="http://www.w3.org/2000/svg"><path d="M417.07 478.609c-8.096 0-11.323-2.294-17.18-6.459-3.706-2.636-8.095-5.75-13.844-8.228l90.31-218.079-70.132-23.51V106.244h-53.983V41.383h-79.583V0h-33.391v41.383h-79.583v64.861h-53.983v116.089l-70.058 23.485 89.375 218.487c-5.33 2.412-9.476 5.341-12.995 7.845-5.858 4.164-9.082 6.458-17.178 6.458-8.094 0-11.32-2.294-17.174-6.458-7.5-5.334-17.77-12.638-36.527-12.638v33.391c8.094 0 11.32 2.294 17.175 6.458C65.819 504.696 76.09 512 94.847 512s29.028-7.304 36.528-12.638c5.856-4.164 9.081-6.458 17.177-6.458 8.094 0 11.32 2.294 17.174 6.458 7.499 5.334 17.77 12.638 36.526 12.638 18.756 0 29.027-7.304 36.527-12.638 5.856-4.164 9.08-6.458 17.175-6.458s11.321 2.294 17.176 6.458c7.5 5.334 17.771 12.638 36.528 12.638 18.757 0 29.028-7.304 36.527-12.638 5.856-4.164 9.081-6.458 17.176-6.458 8.096 0 11.323 2.294 17.18 6.459 7.5 5.333 17.772 12.636 36.53 12.636s29.03-7.304 36.53-12.636c5.857-4.165 9.084-6.459 17.18-6.459v-33.391c-18.758 0-29.03 7.304-36.53 12.636-5.858 4.166-9.084 6.46-17.181 6.46zM193.075 74.774h125.774v31.47H193.075v-31.47zm46.192 387.004c-8.849 2.581-14.945 6.891-19.841 10.372-5.855 4.164-9.08 6.458-17.174 6.458s-11.32-2.294-17.174-6.458c-5.885-4.185-13.498-9.569-25.558-11.699L80.038 266.154l159.229-53.378v249.002zM139.093 211.14v-71.504h233.739v71.504l-116.87-39.178-116.869 39.178zm212.164 249.515c-11.411 2.258-18.724 7.442-24.425 11.496-5.856 4.164-9.08 6.458-17.175 6.458s-11.321-2.294-17.176-6.458c-4.893-3.479-10.984-7.786-19.823-10.367V212.776l159.155 53.354-80.556 194.525z" fill="#8fd16b"/></svg><svg viewBox="0 0 486.392 486.392" width="16" height="16" id="skype" x="539" y="515" xmlns="http://www.w3.org/2000/svg"><path d="M463.258 274.522c1.368-9.88 2.128-19.942 2.128-30.156 0-122.692-100.045-222.19-223.406-222.19a222.275 222.275 0 0 0-35.963 2.918C185.041 11.414 160.083 3.48 133.241 3.48 59.613 3.481 0 63.185 0 136.782c0 26.782 7.873 51.679 21.462 72.564a221.897 221.897 0 0 0-2.766 35.02c0 122.723 99.953 222.19 223.315 222.19 13.923 0 27.481-1.368 40.644-3.739 20.459 12.707 44.626 20.094 70.436 20.094 73.658 0 133.302-59.674 133.302-133.302.029-27.815-8.453-53.716-23.135-75.087zM262.925 408.098c-70.983 3.709-104.179-12.038-134.609-40.553-33.987-31.889-20.337-68.247 7.357-70.101 27.664-1.854 44.262 31.342 59.036 40.583 14.744 9.211 70.861 30.187 100.501-3.709 32.284-36.875-21.462-55.965-60.86-61.741-56.239-8.299-127.252-38.729-121.719-98.707 5.533-59.887 50.889-90.651 98.646-94.968 60.86-5.533 100.501 9.211 131.842 35.963 36.236 30.916 16.629 65.45-6.445 68.216-23.043 2.766-48.822-50.828-99.558-51.618-52.287-.821-87.611 54.415-23.073 70.101 64.568 15.686 133.666 22.131 158.624 81.136 24.928 59.005-38.729 121.689-109.742 125.398z" fill="#090509"/></svg><svg viewBox="0 0 54 54" width="40" height="40" id="slider-arrow" x="555" y="531" xmlns="http://www.w3.org/2000/svg"><g fill="#8fd16b"><path d="M27 1c14.359 0 26 11.641 26 26S41.359 53 27 53 1 41.359 1 27 12.641 1 27 1z"/><path d="M27 54C12.112 54 0 41.888 0 27S12.112 0 27 0s27 12.112 27 27-12.112 27-27 27zm0-52C13.215 2 2 13.215 2 27s11.215 25 25 25 25-11.215 25-25S40.785 2 27 2z"/></g><path d="M31.706 40a.997.997 0 0 1-.707-.293L19.501 28.209a1.711 1.711 0 0 1 0-2.418l11.498-11.498a.999.999 0 1 1 1.414 1.414L21.12 27l11.293 11.293A.999.999 0 0 1 31.706 40z" fill="#fff"/></svg><svg width="13" height="13" viewBox="0 0 46.354 46.354" id="star" x="595" y="571" xmlns="http://www.w3.org/2000/svg"><path d="M21.57 2.049a1.796 1.796 0 0 1 3.218 0l5.771 11.695c.261.529.767.896 1.352.981L44.817 16.6a1.792 1.792 0 0 1 .994 3.06l-9.338 9.104a1.796 1.796 0 0 0-.517 1.588l2.204 12.855a1.797 1.797 0 0 1-2.605 1.893l-11.544-6.07a1.793 1.793 0 0 0-1.67 0l-11.544 6.069a1.795 1.795 0 0 1-2.604-1.892l2.204-12.855a1.794 1.794 0 0 0-.517-1.588L.542 19.66a1.794 1.794 0 0 1 .995-3.06l12.908-1.875a1.794 1.794 0 0 0 1.351-.982L21.57 2.049z" fill="#f0be25"/></svg><svg viewBox="0 0 291.319 291.319" width="32" height="32" id="twitter" x="608" y="584" xmlns="http://www.w3.org/2000/svg"><path d="M145.659 0c80.45 0 145.66 65.219 145.66 145.66 0 80.45-65.21 145.659-145.66 145.659S0 226.109 0 145.66C0 65.219 65.21 0 145.659 0z" fill="#26a6d1"/><path d="M236.724 98.129c-6.363 2.749-13.21 4.597-20.392 5.435 7.338-4.27 12.964-11.016 15.613-19.072a71.965 71.965 0 0 1-22.55 8.366c-6.473-6.691-15.695-10.87-25.909-10.87-19.591 0-35.486 15.413-35.486 34.439 0 2.704.31 5.335.919 7.857-29.496-1.438-55.66-15.158-73.157-35.996a33.46 33.46 0 0 0-4.807 17.315c0 11.944 6.263 22.504 15.786 28.668-5.826-.182-11.289-1.721-16.086-4.315v.437c0 16.696 12.235 30.616 28.476 33.784a36.707 36.707 0 0 1-9.35 1.211c-2.285 0-4.506-.209-6.673-.619 4.515 13.692 17.625 23.651 33.165 23.925-12.153 9.249-27.457 14.748-44.089 14.748-2.868 0-5.69-.164-8.476-.482 15.722 9.777 34.367 15.485 54.422 15.485 65.292 0 100.997-52.51 100.997-98.029l-.1-4.461a70.838 70.838 0 0 0 17.697-17.826z" fill="#fff"/></svg><svg width="16" height="17" viewBox="0 0 31.416 31.416" id="world" x="640" y="616" xmlns="http://www.w3.org/2000/svg"><g fill="#8fd16b"><path d="M28.755 6.968l-.47.149-2.503.223-.707 1.129-.513-.163L22.57 6.51l-.289-.934-.387-.996-1.252-1.123-1.477-.289-.034.676 1.447 1.412.708.834-.796.416-.648-.191-.971-.405.033-.783-1.274-.524-.423 1.841-1.284.291.127 1.027 1.673.322.289-1.641 1.381.204.642.376h1.03l.705 1.412 1.869 1.896-.137.737-1.507-.192-2.604 1.315-1.875 2.249-.244.996h-.673l-1.254-.578-1.218.578.303 1.285.53-.611.932-.029-.065 1.154.772.226.771.866 1.259-.354 1.438.227 1.67.449.834.098 1.414 1.605 2.729 1.605-1.765 3.372-1.863.866-.707 1.927-2.696 1.8-.287 1.038c6.892-1.66 12.019-7.851 12.019-15.253a15.639 15.639 0 0 0-2.66-8.739z"/><path d="M17.515 23.917l-1.144-2.121 1.05-2.188-1.05-.314-1.179-1.184-2.612-.586-.867-1.814v1.077h-.382L9.08 13.735v-2.507L7.43 8.545l-2.62.467H3.045l-.888-.582 1.133-.898-1.13.261a15.61 15.61 0 0 0-2.156 7.916c0 8.673 7.031 15.707 15.705 15.707.668 0 1.323-.059 1.971-.137l-.164-1.903s.721-2.826.721-2.922c-.001-.097-.722-2.537-.722-2.537zM5.84 5.065l2.79-.389 1.286-.705 1.447.417 2.312-.128.792-1.245 1.155.19 2.805-.263.773-.852 1.09-.728 1.542.232.562-.085A15.65 15.65 0 0 0 15.708 0 15.662 15.662 0 0 0 3.596 5.711h.008l2.236-.646zm10.532-3.503l1.604-.883 1.03.595-1.491 1.135-1.424.143-.641-.416.922-.574zm-4.751.129l.708.295.927-.295.505.875-2.14.562-1.029-.602c-.001 0 1.006-.648 1.029-.835z"/></g></svg></svg>