<?xml version="1.0" encoding="utf-8"?><svg xmlns="http://www.w3.org/2000/svg" xmlns:xlink="http://www.w3.org/1999/xlink"><symbol viewBox="0 0 451.846 451.847" id="btn-arrow" xmlns="http://www.w3.org/2000/svg"><path d="M345.441 248.292L151.154 442.573c-12.359 12.365-32.397 12.365-44.75 0-12.354-12.354-12.354-32.391 0-44.744L278.318 225.92 106.409 54.017c-12.354-12.359-12.354-32.394 0-44.748 12.354-12.359 32.391-12.359 44.75 0l194.287 194.284c6.177 6.18 9.262 14.271 9.262 22.366 0 8.099-3.091 16.196-9.267 22.373z"/></symbol><symbol viewBox="0 0 350 350" id="btn-user" xmlns="http://www.w3.org/2000/svg"><path d="M175 171.173c38.914 0 70.463-38.318 70.463-85.586C245.463 38.318 235.105 0 175 0s-70.465 38.318-70.465 85.587c0 47.268 31.549 85.586 70.465 85.586zM41.909 301.853c-.012-2.882-.024-.812 0 0zm266.176 2.251c.038-.789.013-5.474 0 0z"/><path d="M307.935 298.397c-1.305-82.342-12.059-105.805-94.352-120.657 0 0-11.584 14.761-38.584 14.761s-38.586-14.761-38.586-14.761C55.018 192.43 43.61 215.545 42.11 295.722c-.123 6.547-.18 6.891-.202 6.131.005 1.424.011 4.058.011 8.651 0 0 19.592 39.496 133.08 39.496 113.486 0 133.08-39.496 133.08-39.496 0-2.951.002-5.003.005-6.399-.022.47-.066-.441-.149-5.708z"/></symbol><symbol viewBox="0 0 208.213 208.213" id="checklist" xmlns="http://www.w3.org/2000/svg"><path d="M162.656 10.24h-117.1c-7.24 0-13.129 5.89-13.129 13.129v171.715c0 7.24 5.89 13.129 13.129 13.129h117.1c7.24 0 13.129-5.89 13.129-13.131V23.369c.001-7.239-5.889-13.129-13.129-13.129zm6.301 184.842a6.31 6.31 0 0 1-6.303 6.303H45.555a6.31 6.31 0 0 1-6.303-6.303V23.369a6.31 6.31 0 0 1 6.303-6.303h117.099a6.31 6.31 0 0 1 6.303 6.303v171.713z"/><path d="M158.719 23.893h-27.194a3.414 3.414 0 0 0 0 6.826h23.781v157.013h-102.4V30.72h23.472a3.414 3.414 0 0 0 0-6.826H49.492a3.414 3.414 0 0 0-3.413 3.413v163.84a3.414 3.414 0 0 0 3.413 3.413h109.227a3.414 3.414 0 0 0 3.413-3.413V27.307a3.414 3.414 0 0 0-3.413-3.414z"/><path d="M121.673 10.24h-4.345C115.807 4.357 110.456 0 104.106 0S92.405 4.357 90.884 10.24h-4.345c-7.252 0-13.153 5.9-13.153 13.153v1c0 7.252 5.9 13.153 13.153 13.153h35.133c7.253 0 13.153-5.902 13.153-13.153v-1c.001-7.251-5.899-13.153-13.152-13.153zm6.326 14.153a6.334 6.334 0 0 1-6.327 6.327H86.539a6.334 6.334 0 0 1-6.327-6.327v-1a6.334 6.334 0 0 1 6.327-6.327h7.327a3.414 3.414 0 0 0 3.413-3.413c0-3.765 3.062-6.827 6.827-6.827s6.827 3.062 6.827 6.827a3.414 3.414 0 0 0 3.413 3.413h7.327A6.334 6.334 0 0 1 128 23.393v1zm10.24 37.047h-34.133a3.414 3.414 0 0 0 0 6.826h34.133a3.414 3.414 0 0 0 0-6.826zM84.971 48.061a3.416 3.416 0 0 0-4.482 1.794l-8.624 20.122-6.827-4.55a3.414 3.414 0 0 0-3.786 5.68l10.24 6.827a3.4 3.4 0 0 0 2.866.43 3.412 3.412 0 0 0 2.166-1.927l10.24-23.893a3.413 3.413 0 0 0-1.793-4.483zm53.268 57.752h-34.133a3.414 3.414 0 0 0 0 6.826h34.133a3.414 3.414 0 0 0 0-6.826zM84.971 92.435a3.417 3.417 0 0 0-4.482 1.794l-8.624 20.122-6.827-4.55a3.416 3.416 0 0 0-4.733.947 3.415 3.415 0 0 0 .947 4.733l10.24 6.827a3.4 3.4 0 0 0 2.866.43 3.412 3.412 0 0 0 2.166-1.927l10.24-23.893a3.413 3.413 0 0 0-1.793-4.483zm53.268 57.752h-34.133a3.414 3.414 0 0 0 0 6.826h34.133a3.414 3.414 0 0 0 0-6.826zm-53.268-13.379a3.416 3.416 0 0 0-4.482 1.794l-8.624 20.122-6.827-4.55a3.415 3.415 0 0 0-4.733.947 3.415 3.415 0 0 0 .947 4.733l10.24 6.827a3.4 3.4 0 0 0 2.866.43 3.412 3.412 0 0 0 2.166-1.927l10.24-23.893a3.413 3.413 0 0 0-1.793-4.483z"/></symbol><symbol viewBox="0 0 512 512" id="currency" xmlns="http://www.w3.org/2000/svg"><path d="M362.794 370.325c-8.931-6.055-19.95-9.096-30.604-12.036-2.325-.642-4.642-1.281-6.912-1.948-13.034-3.832-21.392-11.394-22.359-20.232-.782-7.148 3.521-14.043 11.506-18.443 1.688-.929 3.567-1.623 5.579-2.114v15.866c0 5.89 4.775 10.667 10.667 10.667 5.89 0 10.667-4.777 10.667-10.667v-15.086c6.227 1.535 12.293 4.01 17.261 7.014 5.04 3.052 11.598 1.439 14.648-3.602 3.05-5.04 1.438-11.598-3.602-14.649-7.893-4.778-17.888-8.703-28.306-10.594v-7.668c0-5.89-4.777-10.667-10.667-10.667-5.891 0-10.667 4.777-10.667 10.667v7.022c-5.596.789-10.979 2.429-15.873 5.125-15.552 8.57-24.142 23.684-22.419 39.448 1.934 17.691 15.971 32.038 37.55 38.38.243.071.496.141.741.212v50.224c-8.827-1.471-16.131-5.21-18.471-9.715-2.713-5.229-9.15-7.268-14.379-4.556-5.229 2.713-7.269 9.151-4.557 14.381 6.487 12.504 21.537 19.548 37.406 21.346v11.135c0 5.89 4.775 10.667 10.667 10.667 5.89 0 10.667-4.777 10.667-10.667V447.93a58.487 58.487 0 0 0 6.442-1.615c16.731-5.273 29.176-19.83 31.701-37.085 2.3-15.715-3.938-30.259-16.686-38.905zm-4.423 35.817c-1.348 9.214-8.022 16.996-17.004 19.826-.009.003-.019.005-.029.01v-42.602c3.587 1.325 6.848 2.821 9.484 4.607 8.38 5.684 8.072 14.592 7.549 18.159z"/><path d="M330.671 234.668c-3.589 0-7.15.138-10.671.406V50.667c0-11.136-7.804-26.849-44.975-38.466C249.847 4.334 216.573 0 181.333 0S112.82 4.334 87.641 12.201c-37.173 11.617-44.976 27.33-44.976 38.466v322.669c0 11.135 7.803 26.848 44.976 38.464 25.179 7.868 58.453 12.202 93.692 12.202 6.717 0 13.434-.169 20.065-.489C221.55 475.243 271.895 512 330.67 512c76.461 0 138.666-62.204 138.666-138.664.001-76.462-62.204-138.668-138.665-138.668zM94.004 32.563c23.175-7.242 54.188-11.23 87.329-11.23 33.139 0 64.154 3.988 87.329 11.23 24.492 7.654 30.005 15.84 30.005 18.104 0 2.265-5.513 10.45-30.005 18.105-23.175 7.241-54.188 11.229-87.329 11.229s-64.155-3.988-87.329-11.23C69.51 61.117 63.998 52.932 63.998 50.667c0-2.263 5.512-10.449 30.006-18.104zM63.998 79.256c6.111 3.471 13.849 6.817 23.643 9.877 25.179 7.868 58.453 12.201 93.692 12.201s68.514-4.334 93.692-12.2c9.794-3.06 17.531-6.406 23.642-9.877v25.191c0 2.263-5.513 10.449-30.005 18.104-23.176 7.241-54.188 11.229-87.329 11.229-15.38 0-30.396-.866-44.631-2.572-5.846-.707-11.16 3.472-11.86 9.321-.701 5.849 3.472 11.16 9.321 11.86 15.074 1.807 30.944 2.724 47.171 2.724 35.24 0 68.514-4.334 93.691-12.201 9.794-3.06 17.531-6.406 23.642-9.876v78.965c0 2.265-5.513 10.45-30.005 18.105-23.175 7.242-54.188 11.229-87.329 11.229-33.141 0-64.156-3.987-87.329-11.229-24.494-7.654-30.007-15.84-30.007-18.105v-25.187c6.111 3.47 13.849 6.817 23.643 9.877 25.179 7.868 58.453 12.201 93.692 12.201 20.994 0 41.099-1.507 59.757-4.48 5.819-.926 9.784-6.394 8.857-12.211-.927-5.819-6.409-9.781-12.212-8.856-17.305 2.756-36.808 4.213-56.402 4.213-33.139 0-64.155-3.988-87.329-11.23-24.494-7.654-30.007-15.839-30.007-18.103v-78.97zm117.335 323.413c-33.139 0-64.155-3.988-87.329-11.23-24.494-7.654-30.007-15.839-30.007-18.103v-25.19c6.111 3.47 13.849 6.817 23.643 9.877 25.178 7.868 58.453 12.202 93.692 12.202 3.569 0 7.144-.05 10.706-.141a140.907 140.907 0 0 0-.039 3.252c0 1.214.017 2.422.048 3.629.01.375.029.752.043 1.129.028.83.055 1.661.098 2.486.023.455.059.91.086 1.363.046.743.09 1.489.146 2.229.039.502.09 1.003.134 1.503.062.69.119 1.381.191 2.068.057.542.124 1.083.187 1.622.074.639.145 1.279.227 1.916.076.59.163 1.179.247 1.766.082.577.162 1.156.252 1.731.101.644.211 1.286.321 1.929.086.51.172 1.021.263 1.53.128.703.267 1.404.405 2.106.085.433.17.867.259 1.298.053.261.101.526.158.789-4.553.159-9.142.239-13.731.239zm22.944-86.368c-.004.011-.01.019-.014.03-.375.833-.74 1.669-1.1 2.51-.102.239-.208.476-.308.716-.166.394-.324.79-.486 1.186a137.467 137.467 0 0 0-8.172 27.934c-4.273.138-8.573.215-12.865.215-33.141 0-64.155-3.988-87.329-11.23-24.494-7.654-30.007-15.84-30.007-18.104V240.59h.001c6.111 3.47 13.849 6.817 23.643 9.877 25.178 7.867 58.452 12.201 93.692 12.201 28.082 0 54.901-2.759 77.383-7.858a139.174 139.174 0 0 0-33.529 28.512 138.536 138.536 0 0 0-7.872 10.142c-11.6 1.092-23.705 1.649-35.982 1.649-15.38 0-30.396-.866-44.631-2.572-5.846-.702-11.16 3.471-11.86 9.321-.701 5.849 3.472 11.16 9.321 11.86 15.074 1.807 30.944 2.724 47.171 2.724 7.819 0 15.561-.241 23.183-.664-.079.174-.16.346-.239.519zm126.394 174.366c-52.551 0-97.143-34.724-112.037-82.43-.181-.58-.35-1.164-.522-1.746a120.695 120.695 0 0 1-1.339-4.933c-.135-.548-.275-1.094-.403-1.647-.259-1.12-.501-2.244-.729-3.373-.093-.461-.179-.924-.267-1.387a113.69 113.69 0 0 1-.517-2.95c-.05-.308-.106-.614-.153-.923a113.807 113.807 0 0 1-.64-4.878 119.059 119.059 0 0 1-.355-3.677l-.028-.322a117.942 117.942 0 0 1-.27-5.003 116.855 116.855 0 0 1-.078-4.062c0-1.627.044-3.244.109-4.855.011-.263.018-.529.03-.792a119.302 119.302 0 0 1 .411-5.695c.122-1.278.266-2.55.427-3.815.089-.685.188-1.365.288-2.046.091-.625.193-1.247.293-1.869.249-1.514.517-3.02.825-4.513l.012-.054c8.794-42.823 40.993-77.207 82.587-89.156.171-.048.339-.098.509-.146.962-.271 1.932-.53 2.905-.779a121.179 121.179 0 0 1 9.092-1.929 117.666 117.666 0 0 1 19.852-1.688c64.696 0 117.332 52.637 117.332 117.335-.002 64.698-52.638 117.333-117.334 117.333z"/><path d="M96.347 145.404c1.653.436 3.345.86 5.068 1.269.83.198 1.661.291 2.478.291 4.826 0 9.202-3.299 10.368-8.201 1.363-5.73-2.177-11.482-7.908-12.845-1.552-.369-3.075-.75-4.564-1.142-5.701-1.504-11.534 1.897-13.035 7.593-1.504 5.697 1.896 11.533 7.593 13.035zm173.303 52.443a10.69 10.69 0 0 0 3.05-.447 178.411 178.411 0 0 0 6.284-2c5.579-1.891 8.569-7.948 6.677-13.528-1.891-5.579-7.948-8.568-13.528-6.677-1.821.618-3.679 1.21-5.525 1.758-5.646 1.682-8.859 7.622-7.178 13.268a10.673 10.673 0 0 0 10.22 7.626zM106.346 287.25c-1.554-.369-3.081-.75-4.572-1.141-5.691-1.491-11.53 1.911-13.025 7.611-1.494 5.697 1.913 11.529 7.611 13.024 1.652.433 3.341.854 5.061 1.263.828.196 1.657.29 2.471.29 4.829 0 9.205-3.302 10.369-8.206 1.361-5.732-2.183-11.482-7.915-12.841z"/></symbol><symbol viewBox="0 0 512.001 512.001" id="doc" xmlns="http://www.w3.org/2000/svg"><path d="M463.996 126.864L340.192 3.061A10.452 10.452 0 0 0 332.803 0H95.726C67.724 0 44.944 22.782 44.944 50.784v410.434c0 28.001 22.781 50.783 50.783 50.783h320.547c28.002 0 50.783-22.781 50.783-50.783V134.253a10.458 10.458 0 0 0-3.061-7.389zM343.255 35.679l88.127 88.126H373.14c-7.984 0-15.49-3.109-21.134-8.753-5.643-5.643-8.752-13.148-8.751-21.131V35.679zm102.903 425.538c0 16.479-13.406 29.885-29.884 29.885H95.726c-16.479 0-29.885-13.406-29.885-29.885V50.784c.001-16.479 13.407-29.886 29.885-29.886h226.631v73.021c-.002 13.565 5.28 26.318 14.871 35.909 9.592 9.592 22.345 14.874 35.911 14.874h73.018v316.515z"/><path d="M275.092 351.492h-4.678c-5.77 0-10.449 4.678-10.449 10.449s4.679 10.449 10.449 10.449h4.678c5.77 0 10.449-4.678 10.449-10.449s-4.679-10.449-10.449-10.449zm-38.482 0H135.118c-5.77 0-10.449 4.678-10.449 10.449s4.679 10.449 10.449 10.449H236.61c5.77 0 10.449-4.678 10.449-10.449s-4.678-10.449-10.449-10.449zm140.272-47.745H135.119c-5.77 0-10.449 4.678-10.449 10.449s4.679 10.449 10.449 10.449h241.763c5.77 0 10.449-4.678 10.449-10.449s-4.679-10.449-10.449-10.449zm0-47.747H135.119c-5.77 0-10.449 4.678-10.449 10.449s4.679 10.449 10.449 10.449h241.763c5.77 0 10.449-4.678 10.449-10.449S382.652 256 376.882 256zm0-47.745H135.119c-5.77 0-10.449 4.678-10.449 10.449s4.679 10.449 10.449 10.449h241.763c5.77 0 10.449-4.678 10.449-10.449s-4.679-10.449-10.449-10.449z"/></symbol><symbol viewBox="0 0 96.227 96.227" id="fb" xmlns="http://www.w3.org/2000/svg"><path d="M73.099 15.973l-9.058.004c-7.102 0-8.477 3.375-8.477 8.328v10.921h16.938l-.006 17.106H55.564v43.895H37.897V52.332h-14.77V35.226h14.77V22.612C37.897 7.972 46.84 0 59.9 0l13.2.021-.001 15.952z"/></symbol><symbol viewBox="0 0 454.656 454.656" id="guarantee" xmlns="http://www.w3.org/2000/svg"><path d="M454.656 227.584l-38.912-50.688 8.704-62.976-59.392-23.552-23.552-59.392-62.976 8.704-51.2-39.424-50.688 38.912-62.976-8.704-23.552 59.392-59.392 23.552 8.704 62.976L0 227.584l38.912 50.688-8.704 62.976L89.6 364.8l23.552 59.392 62.976-8.704 50.688 38.912 50.688-38.912 62.976 8.704 23.552-59.392 59.392-24.064-8.704-62.976 39.936-50.176zm-245.76 73.728l-75.776-62.464 16.384-19.968 56.32 46.08 96.256-111.104 19.456 16.896-112.64 130.56z"/></symbol><symbol viewBox="0 0 295.531 295.531" id="health" xmlns="http://www.w3.org/2000/svg"><path d="M113.063 186.34c-1.979-11.295-1.933-25.818-1.849-52.186.018-5.816.038-12.207.038-19.25l-.285-21.125 20.213 5.613c.514.113 3.738.783 8.253.783 14.1 0 24.819-5.805 31.863-17.623l5.488-9.021h-39.007c10.349-8 17.116-19.516 17.116-33.139C154.894 18.135 136.852 0 114.599 0 92.34 0 74.3 18.182 74.3 40.439c0 13.623 6.767 25.092 17.117 33.092H64.634v-.351c-6 .252-12 6.199-12 12.881v99.875c0 6.828 5.936 12.596 12.766 12.596h.495c5.196 0 9.739-3.504 11.739-8.008v86.383c0 10.078 8.504 18.625 18.583 18.625h.5c10.079 0 18.25-8.172 18.25-18.25 0 10.078 8.171 18.25 18.25 18.25h.5c10.079 0 17.917-8.547 17.917-18.625v-41.523c-8-6.078-16.421-12.756-21.932-18.195-8.511-8.4-14.125-16.492-16.639-30.849z"/><path d="M242.828 114.904s-4.931 1.271-12.181 1.271c-12.752 0-32.681-3.93-45.607-25.619-12.925 21.688-32.855 25.619-45.607 25.619-7.252 0-12.181-1.271-12.181-1.271 0 67.715-1.859 75.387 13.856 90.897 12.672 12.508 43.932 33.355 43.932 33.355s31.26-20.848 43.933-33.355c15.715-15.51 13.855-23.182 13.855-90.897zm-18.871 64.303c-1.068 6.09-2.977 9.51-8.169 14.635-6.325 6.242-19.289 15.568-26.454 20.572l-4.294 3-4.295-3c-7.166-5.006-20.133-14.334-26.452-20.57-5.194-5.129-7.102-8.549-8.169-14.637-1.273-7.27-1.238-18.654-1.181-37.52l.031-8.902 7.118-.34c10.921-.521 20.329-4.227 27.964-11.016l4.983-4.432 4.984 4.432c7.634 6.789 17.043 10.496 27.963 11.016l7.119.34.03 8.943c.059 18.84.095 30.213-1.178 37.479z"/><path d="M176.635 174.531v16h16v-16h16v-16h-16v-17h-16v17h-17v16z"/></symbol><symbol viewBox="0 0 512 512" id="hotel" xmlns="http://www.w3.org/2000/svg"><path d="M145.046 230.404H85.321a8.532 8.532 0 0 0-8.532 8.532v85.321a8.532 8.532 0 0 0 8.532 8.532h59.725a8.532 8.532 0 0 0 8.532-8.532v-85.321a8.532 8.532 0 0 0-8.532-8.532zm-8.532 85.321H93.853v-68.257h42.661v68.257zm153.577-85.321h-59.725a8.532 8.532 0 0 0-8.532 8.532v85.321a8.532 8.532 0 0 0 8.532 8.532h59.725a8.532 8.532 0 0 0 8.532-8.532v-85.321a8.532 8.532 0 0 0-8.532-8.532zm-8.532 85.321h-42.66v-68.257h42.66v68.257zm8.532 51.192h-59.725a8.532 8.532 0 0 0-8.532 8.532v85.321a8.532 8.532 0 0 0 8.532 8.532h59.725a8.532 8.532 0 0 0 8.532-8.532v-85.321a8.533 8.533 0 0 0-8.532-8.532zm-8.532 85.321h-42.66v-68.257h42.66v68.257zm145.046-221.834H366.88a8.532 8.532 0 0 0-8.532 8.532v85.321a8.532 8.532 0 0 0 8.532 8.532h59.725a8.532 8.532 0 0 0 8.532-8.532v-85.321a8.532 8.532 0 0 0-8.532-8.532zm-8.532 85.321h-42.66v-68.257h42.66v68.257zm-273.027 51.192H85.321a8.532 8.532 0 0 0-8.532 8.532v85.321a8.532 8.532 0 0 0 8.532 8.532h59.725a8.532 8.532 0 0 0 8.532-8.532v-85.321a8.533 8.533 0 0 0-8.532-8.532zm-8.532 85.321H93.853v-68.257h42.661v68.257zm290.091-85.321H366.88a8.532 8.532 0 0 0-8.532 8.532v85.321a8.532 8.532 0 0 0 8.532 8.532h59.725a8.532 8.532 0 0 0 8.532-8.532v-85.321a8.533 8.533 0 0 0-8.532-8.532zm-8.532 85.321h-42.66v-68.257h42.66v68.257z"/><path d="M477.798 494.899V204.807h8.532a8.532 8.532 0 0 0 8.532-8.532v-42.66a8.532 8.532 0 0 0-8.532-8.532h-8.532v-34.128a8.532 8.532 0 0 0-8.532-8.532h-17.064V8.569A8.532 8.532 0 0 0 443.67.037H68.257a8.532 8.532 0 0 0-8.532 8.532v93.853H42.661a8.532 8.532 0 0 0-8.532 8.532v34.128h-8.532a8.532 8.532 0 0 0-8.532 8.532v42.66a8.532 8.532 0 0 0 8.532 8.532h8.532v290.091H0v17.064h512v-17.064h-34.202zM76.789 17.101h358.348v85.321H76.789V17.101zM51.193 119.486h409.54v25.596H51.193v-25.596zm409.54 375.413H51.193V204.807h409.541v290.092zM42.661 187.743h-8.532v-25.596h443.669v25.596H42.661z"/><path d="M242.858 46.292c-1.357-3.468-3.263-6.463-5.721-8.984-2.457-2.521-5.414-4.499-8.869-5.932-3.456-1.433-7.282-2.15-11.48-2.15s-8.031.71-11.499 2.131c-3.468 1.421-6.437 3.398-8.907 5.932-2.47 2.534-4.383 5.535-5.74 9.004-1.357 3.468-2.035 7.237-2.035 11.307s.678 7.839 2.035 11.307c1.357 3.468 3.27 6.469 5.74 9.004 2.47 2.534 5.439 4.511 8.907 5.932 3.468 1.421 7.301 2.131 11.499 2.131s8.024-.71 11.48-2.131c3.456-1.42 6.412-3.398 8.869-5.932 2.457-2.534 4.364-5.535 5.721-9.004 1.357-3.468 2.035-7.237 2.035-11.307 0-4.071-.679-7.84-2.035-11.308zm-9.772 19.504c-.806 2.419-1.965 4.467-3.475 6.143-1.51 1.677-3.347 2.963-5.51 3.859-2.163.896-4.601 1.344-7.314 1.344s-5.158-.448-7.333-1.344c-2.176-.896-4.025-2.182-5.548-3.859-1.523-1.677-2.694-3.724-3.513-6.143-.819-2.419-1.229-5.151-1.229-8.197s.41-5.778 1.229-8.197c.819-2.419 1.99-4.473 3.513-6.162s3.372-2.982 5.548-3.878c2.176-.896 4.62-1.344 7.333-1.344s5.151.448 7.314 1.344c2.163.896 3.999 2.189 5.51 3.878 1.51 1.689 2.668 3.743 3.475 6.162.806 2.419 1.209 5.151 1.209 8.197s-.402 5.778-1.209 8.197zM170.023 29.84v23.881h-26.031V29.84h-10.405v55.518h10.405V61.093h26.031v24.265h10.405V29.84zm179.994 46.994V29.84h-10.329v55.518h32.559v-8.524zM245.353 29.84v8.485h16.779v47.033h10.328V38.325h16.701V29.84zm85.39 8.216V29.84h-35.016v55.518h35.016v-8.255h-24.611V61.4h19.389v-7.948h-19.389V38.056z"/></symbol><symbol viewBox="0 0 512 512" id="house" xmlns="http://www.w3.org/2000/svg"><path d="M270.792 171.097l-128-100.571a9.142 9.142 0 0 0-11.297 0l-128 100.571a9.14 9.14 0 0 0-1.54 12.837c3.12 3.971 8.868 4.663 12.837 1.54l122.351-96.133 122.351 96.133a9.095 9.095 0 0 0 5.642 1.954 9.124 9.124 0 0 0 7.195-3.494 9.14 9.14 0 0 0-1.539-12.837z"/><path d="M137.143 169.143c-25.206 0-45.714 20.508-45.714 45.714s20.508 45.714 45.714 45.714 45.714-20.508 45.714-45.714-20.507-45.714-45.714-45.714zm0 73.143c-15.124 0-27.429-12.305-27.429-27.429 0-15.124 12.305-27.429 27.429-27.429 15.124 0 27.429 12.305 27.429 27.429 0 15.124-12.305 27.429-27.429 27.429z"/><path d="M502.857 205.714H268.306l-125.514-98.618a9.142 9.142 0 0 0-11.297 0l-128 100.571A9.143 9.143 0 0 0 0 214.857v219.428a9.144 9.144 0 0 0 9.143 9.143h493.714a9.144 9.144 0 0 0 9.143-9.143V214.857a9.144 9.144 0 0 0-9.143-9.143zM173.715 425.142h-73.143V324.571h73.143v100.571zm82.285 0h-64V315.428a9.144 9.144 0 0 0-9.143-9.143H91.429a9.144 9.144 0 0 0-9.143 9.143v109.714h-64V219.301l118.857-93.388L256 219.301v205.841zm237.714 0H274.286V260.571h219.428v164.571zm0-182.856H274.286V224h219.428v18.286z"/><path d="M429.714 288h-91.428a9.144 9.144 0 0 0-9.143 9.143v91.428a9.144 9.144 0 0 0 9.143 9.143h91.428a9.144 9.144 0 0 0 9.143-9.143v-91.428a9.142 9.142 0 0 0-9.143-9.143zm-54.857 91.428h-27.429V352h27.429v27.428zm0-45.714h-27.429v-27.429h27.429v27.429zm45.715 45.714h-27.429V352h27.429v27.428zm0-45.714h-27.429v-27.429h27.429v27.429z"/></symbol><symbol viewBox="0 0 97.395 97.395" id="inst" xmlns="http://www.w3.org/2000/svg"><path d="M12.501 0h72.393c6.875 0 12.5 5.09 12.5 12.5v72.395c0 7.41-5.625 12.5-12.5 12.5H12.501C5.624 97.395 0 92.305 0 84.895V12.5C0 5.09 5.624 0 12.501 0zm58.447 10.821a4.395 4.395 0 0 0-4.383 4.385v10.495a4.396 4.396 0 0 0 4.383 4.385h11.008a4.398 4.398 0 0 0 4.385-4.385V15.206a4.397 4.397 0 0 0-4.385-4.385H70.948zm15.439 30.367h-8.572a28.486 28.486 0 0 1 1.25 8.355c0 16.2-13.556 29.332-30.275 29.332-16.718 0-30.272-13.132-30.272-29.332 0-2.904.438-5.708 1.25-8.355h-8.945v41.141a3.884 3.884 0 0 0 3.872 3.872h67.822a3.883 3.883 0 0 0 3.872-3.872V41.188h-.002zM48.789 29.533c-10.802 0-19.56 8.485-19.56 18.953s8.758 18.953 19.56 18.953c10.803 0 19.562-8.485 19.562-18.953s-8.758-18.953-19.562-18.953z"/></symbol><symbol viewBox="0 0 511.887 511.887" id="itinerary" xmlns="http://www.w3.org/2000/svg"><path d="M137.887 433.025c-3.972 6.885-7.68 13.153-11.034 18.45a35.26 35.26 0 0 1-59.498 0c-3.354-5.297-7.062-11.564-11.034-18.45C19.421 439.999 0 454.741 0 466.216c0 17.39 41.49 36.899 97.103 36.899 55.614 0 97.103-19.509 97.103-36.899.001-11.475-19.42-26.217-56.319-33.191z"/><path d="M97.104 150.012C43.393 150.149-.059 193.759 0 247.469c0 37.341 49.876 143.713 82.273 194.472a17.5 17.5 0 0 0 29.66 0c32.397-50.759 82.273-157.131 82.273-194.472.06-53.71-43.392-97.32-97.102-97.457zm0 167.724c-39.003 0-70.621-31.618-70.621-70.621s31.618-70.621 70.621-70.621 70.621 31.618 70.621 70.621c-.053 38.982-31.64 70.57-70.621 70.621z"/><path d="M97.104 194.15c-29.252 0-52.966 23.713-52.966 52.966s23.713 52.966 52.966 52.966c29.252 0 52.966-23.713 52.966-52.966-.024-29.243-23.724-52.943-52.966-52.966zm335.448 52.966c33.457 0 61.793-16.154 61.793-35.31 0-10.858-9.71-21.451-25.159-28.248-5.208 9.71-10.24 18.361-14.301 24.806a26.459 26.459 0 0 1-44.668 0c-4.061-6.444-9.092-15.095-14.301-24.806-15.448 6.797-25.158 17.39-25.158 28.248.001 19.155 28.337 35.31 61.794 35.31z"/><path d="M432.552 202.823a8.989 8.989 0 0 0 7.415-3.906c21.362-33.633 54.377-103.724 54.377-128.088.046-34.189-27.604-61.958-61.793-62.058-34.189.1-61.839 27.868-61.793 62.058 0 24.364 33.015 94.455 54.378 128.088a8.992 8.992 0 0 0 7.416 3.906zM388.414 70.564c0-24.377 19.761-44.138 44.138-44.138s44.138 19.761 44.138 44.138c-.009 24.373-19.765 44.129-44.138 44.138-24.377 0-44.138-19.761-44.138-44.138z"/><path d="M459.035 70.564c-.043-14.608-11.874-26.44-26.483-26.483-14.626 0-26.483 11.857-26.483 26.483 0 14.626 11.857 26.483 26.483 26.483 14.626 0 26.483-11.857 26.483-26.483zM229.517 458.978h-8.828a8.828 8.828 0 0 0 0 17.656h8.828a8.828 8.828 0 0 0 0-17.656zm106.543 0h-17.759a8.828 8.828 0 0 0 0 17.656h17.759a8.828 8.828 0 0 0 0-17.656zm-17.914-167.724a8.828 8.828 0 0 0-8.828-8.828H291.56a8.828 8.828 0 0 0 0 17.656h17.758a8.829 8.829 0 0 0 8.828-8.828zm-36.361-70.621h17.759a8.828 8.828 0 0 0 0-17.656h-17.759a8.828 8.828 0 0 0 0 17.656zm-41.389 27.086a8.838 8.838 0 0 0 8.371-6.022 30.973 30.973 0 0 1 7.138-11.69 8.83 8.83 0 0 0-.186-12.487 8.83 8.83 0 0 0-12.487.186 48.953 48.953 0 0 0-11.207 18.371 8.846 8.846 0 0 0 8.371 11.642zm244.85 77.931a8.827 8.827 0 0 0-2.823 12.159 79.087 79.087 0 0 1 7.017 14.31 8.83 8.83 0 0 0 8.276 5.767 8.833 8.833 0 0 0 8.275-11.897 96.856 96.856 0 0 0-8.586-17.517 8.827 8.827 0 0 0-12.159-2.822zM282.793 458.978h-17.759a8.828 8.828 0 0 0 0 17.656h17.759a8.828 8.828 0 0 0 0-17.656zm220.695-83.814a8.83 8.83 0 0 0-9.247 8.323 78.127 78.127 0 0 1-2.388 15.741 8.83 8.83 0 0 0 8.56 11.034 8.845 8.845 0 0 0 8.543-6.621 96.414 96.414 0 0 0 2.922-19.293 8.827 8.827 0 0 0-8.39-9.184zm-132.402-83.91a9.111 9.111 0 0 0-9.155-8.828h-17.104a8.828 8.828 0 0 0 0 17.656h17.759a8.554 8.554 0 0 0 8.5-8.828zM490.297 426.13a8.829 8.829 0 0 0-12.375 1.615 81.013 81.013 0 0 1-10.94 11.642 8.826 8.826 0 0 0 5.802 15.479 8.79 8.79 0 0 0 5.802-2.177 98.7 98.7 0 0 0 13.336-14.185 8.828 8.828 0 0 0-1.625-12.374zm-65.556-134.812a8.828 8.828 0 0 0-8.767-8.888l-17.871-.004a8.828 8.828 0 0 0 0 17.656l17.629.004h.121a8.828 8.828 0 0 0 8.888-8.768zm-167.577 2.824a8.83 8.83 0 0 0 4.664-16.328 31.23 31.23 0 0 1-9.767-9.621 8.83 8.83 0 0 0-12.203-2.659 8.83 8.83 0 0 0-2.659 12.203 49.176 49.176 0 0 0 15.319 15.078 8.776 8.776 0 0 0 4.646 1.327zm132.164 164.836h-17.759a8.828 8.828 0 0 0 0 17.656h17.759a8.828 8.828 0 0 0 0-17.656zm76.396-142.686a8.83 8.83 0 0 0 5.112-16.034 97.858 97.858 0 0 0-16.939-9.616 8.828 8.828 0 0 0-7.138 16.146 79.98 79.98 0 0 1 13.871 7.884 8.817 8.817 0 0 0 5.094 1.62zm-26.327 138.794a78.874 78.874 0 0 1-15.569 3.388 8.829 8.829 0 0 0 1.982 17.543 96.856 96.856 0 0 0 19.069-4.147 8.829 8.829 0 0 0-5.482-16.784zM335.448 220.633h8.828a8.828 8.828 0 0 0 0-17.656h-8.828a8.828 8.828 0 0 0 0 17.656z"/></symbol><symbol viewBox="0 0 478.2 478.2" id="like" xmlns="http://www.w3.org/2000/svg"><path d="M457.575 325.1c9.8-12.5 14.5-25.9 13.9-39.7-.6-15.2-7.4-27.1-13-34.4 6.5-16.2 9-41.7-12.7-61.5-15.9-14.5-42.9-21-80.3-19.2-26.3 1.2-48.3 6.1-49.2 6.3h-.1c-5 .9-10.3 2-15.7 3.2-.4-6.4.7-22.3 12.5-58.1 14-42.6 13.2-75.2-2.6-97-16.6-22.9-43.1-24.7-50.9-24.7-7.5 0-14.4 3.1-19.3 8.8-11.1 12.9-9.8 36.7-8.4 47.7-13.2 35.4-50.2 122.2-81.5 146.3-.6.4-1.1.9-1.6 1.4-9.2 9.7-15.4 20.2-19.6 29.4-5.9-3.2-12.6-5-19.8-5h-61c-23 0-41.6 18.7-41.6 41.6v162.5c0 23 18.7 41.6 41.6 41.6h61c8.9 0 17.2-2.8 24-7.6l23.5 2.8c3.6.5 67.6 8.6 133.3 7.3 11.9.9 23.1 1.4 33.5 1.4 17.9 0 33.5-1.4 46.5-4.2 30.6-6.5 51.5-19.5 62.1-38.6 8.1-14.6 8.1-29.1 6.8-38.3 19.9-18 23.4-37.9 22.7-51.9-.4-8.1-2.2-15-4.1-20.1zm-409.3 122.2c-8.1 0-14.6-6.6-14.6-14.6V270.1c0-8.1 6.6-14.6 14.6-14.6h61c8.1 0 14.6 6.6 14.6 14.6v162.5c0 8.1-6.6 14.6-14.6 14.6h-61v.1zm383.7-133.9c-4.2 4.4-5 11.1-1.8 16.3 0 .1 4.1 7.1 4.6 16.7.7 13.1-5.6 24.7-18.8 34.6-4.7 3.6-6.6 9.8-4.6 15.4 0 .1 4.3 13.3-2.7 25.8-6.7 12-21.6 20.6-44.2 25.4-18.1 3.9-42.7 4.6-72.9 2.2h-1.4c-64.3 1.4-129.3-7-130-7.1h-.1l-10.1-1.2c.6-2.8.9-5.8.9-8.8V270.1c0-4.3-.7-8.5-1.9-12.4 1.8-6.7 6.8-21.6 18.6-34.3 44.9-35.6 88.8-155.7 90.7-160.9.8-2.1 1-4.4.6-6.7-1.7-11.2-1.1-24.9 1.3-29 5.3.1 19.6 1.6 28.2 13.5 10.2 14.1 9.8 39.3-1.2 72.7-16.8 50.9-18.2 77.7-4.9 89.5 6.6 5.9 15.4 6.2 21.8 3.9 6.1-1.4 11.9-2.6 17.4-3.5.4-.1.9-.2 1.3-.3 30.7-6.7 85.7-10.8 104.8 6.6 16.2 14.8 4.7 34.4 3.4 36.5-3.7 5.6-2.6 12.9 2.4 17.4.1.1 10.6 10 11.1 23.3.4 8.9-3.8 18-12.5 27z"/></symbol><symbol viewBox="0 0 350 350" id="man-user" xmlns="http://www.w3.org/2000/svg"><path d="M175 171.173c38.914 0 70.463-38.318 70.463-85.586C245.463 38.318 235.105 0 175 0s-70.465 38.318-70.465 85.587c0 47.268 31.549 85.586 70.465 85.586zM41.909 301.853c-.012-2.882-.024-.812 0 0zm266.176 2.251c.038-.789.013-5.474 0 0z"/><path d="M307.935 298.397c-1.305-82.342-12.059-105.805-94.352-120.657 0 0-11.584 14.761-38.584 14.761s-38.586-14.761-38.586-14.761C55.018 192.43 43.61 215.545 42.11 295.722c-.123 6.547-.18 6.891-.202 6.131.005 1.424.011 4.058.011 8.651 0 0 19.592 39.496 133.08 39.496 113.486 0 133.08-39.496 133.08-39.496 0-2.951.002-5.003.005-6.399-.022.47-.066-.441-.149-5.708z"/></symbol><symbol viewBox="0 0 512 512" id="medal" xmlns="http://www.w3.org/2000/svg"><path d="M256 85c-63.411 0-115 51.589-115 115s51.589 115 115 115 115-51.589 115-115S319.411 85 256 85zm-13.434 162.188l-43.273-42.835 21.105-21.321 22.002 21.78 49.118-49.389 21.271 21.155-70.223 70.61z"/><path d="M437.005 160.787a14.96 14.96 0 0 1-4.644-17.33c5.442-13.713 4.794-29.687-3.156-43.457s-21.46-22.319-36.057-24.462a14.96 14.96 0 0 1-12.687-12.687C378.318 48.255 369.77 34.745 356 26.795c-13.77-7.95-29.744-8.598-43.457-3.156a14.956 14.956 0 0 1-17.33-4.644C286.058 7.426 271.9 0 256 0c-15.9 0-30.058 7.426-39.213 18.995a14.96 14.96 0 0 1-17.33 4.644c-13.713-5.442-29.687-4.794-43.457 3.156s-22.318 21.46-24.462 36.057a14.96 14.96 0 0 1-12.687 12.687C104.255 77.681 90.745 86.23 82.795 100s-8.598 29.744-3.156 43.457a14.956 14.956 0 0 1-4.644 17.33C63.426 169.942 56 184.1 56 200c0 15.9 7.426 30.058 18.995 39.213a14.96 14.96 0 0 1 4.644 17.33c-5.442 13.713-4.794 29.687 3.156 43.457 7.95 13.77 21.46 22.318 36.057 24.462a14.958 14.958 0 0 1 12.687 12.687c2.143 14.597 10.692 28.107 24.462 36.057 13.77 7.95 29.744 8.598 43.457 3.156a14.956 14.956 0 0 1 17.33 4.644C225.942 392.574 240.1 400 256 400c15.9 0 30.058-7.426 39.213-18.995a14.96 14.96 0 0 1 17.33-4.644c13.713 5.442 29.687 4.794 43.457-3.156 13.77-7.95 22.319-21.46 24.462-36.057a14.96 14.96 0 0 1 12.687-12.687c14.597-2.143 28.107-10.692 36.057-24.462s8.598-29.744 3.156-43.457a14.956 14.956 0 0 1 4.644-17.33C448.574 230.058 456 215.9 456 200c0-15.9-7.426-30.058-18.995-39.213zM256 345c-79.953 0-145-65.047-145-145S176.047 55 256 55s145 65.047 145 145-65.047 145-145 145zm55.604 62.518C296.77 421.914 277.015 430 256 430s-40.77-8.085-55.604-22.482a79.314 79.314 0 0 1-39.396-.144V512h27.598L256 487.928 323.402 512H351V407.373a79.337 79.337 0 0 1-39.396.145z"/></symbol><symbol viewBox="0 0 24 24" id="menu" xmlns="http://www.w3.org/2000/svg"><path d="M24 3c0-.6-.4-1-1-1H1c-.6 0-1 .4-1 1v2c0 .6.4 1 1 1h22c.6 0 1-.4 1-1V3zm0 8c0-.6-.4-1-1-1H1c-.6 0-1 .4-1 1v2c0 .6.4 1 1 1h22c.6 0 1-.4 1-1v-2zm0 8c0-.6-.4-1-1-1H1c-.6 0-1 .4-1 1v2c0 .6.4 1 1 1h22c.6 0 1-.4 1-1v-2z"/></symbol><symbol viewBox="0 0 95.481 95.481" id="od" xmlns="http://www.w3.org/2000/svg"><path d="M43.041 67.254c-7.402-.772-14.076-2.595-19.79-7.064-.709-.556-1.441-1.092-2.088-1.713-2.501-2.402-2.753-5.153-.774-7.988 1.693-2.426 4.535-3.075 7.489-1.682.572.27 1.117.607 1.639.969 10.649 7.317 25.278 7.519 35.967.329 1.059-.812 2.191-1.474 3.503-1.812 2.551-.655 4.93.282 6.299 2.514 1.564 2.549 1.544 5.037-.383 7.016-2.956 3.034-6.511 5.229-10.461 6.761-3.735 1.448-7.826 2.177-11.875 2.661.611.665.899.992 1.281 1.376 5.498 5.524 11.02 11.025 16.5 16.566 1.867 1.888 2.257 4.229 1.229 6.425-1.124 2.4-3.64 3.979-6.107 3.81-1.563-.108-2.782-.886-3.865-1.977-4.149-4.175-8.376-8.273-12.441-12.527-1.183-1.237-1.752-1.003-2.796.071-4.174 4.297-8.416 8.528-12.683 12.735-1.916 1.889-4.196 2.229-6.418 1.15-2.362-1.145-3.865-3.556-3.749-5.979.08-1.639.886-2.891 2.011-4.014 5.441-5.433 10.867-10.88 16.295-16.322.359-.362.694-.746 1.217-1.305z"/><path d="M47.55 48.329c-13.205-.045-24.033-10.992-23.956-24.218C23.67 10.739 34.505-.037 47.84 0c13.362.036 24.087 10.967 24.02 24.478-.068 13.199-10.971 23.897-24.31 23.851zm12.001-24.186c-.023-6.567-5.253-11.795-11.807-11.801-6.609-.007-11.886 5.316-11.835 11.943.049 6.542 5.324 11.733 11.896 11.709 6.552-.023 11.768-5.285 11.746-11.851z"/></symbol><symbol viewBox="0 0 512 512" id="pass" xmlns="http://www.w3.org/2000/svg"><path d="M111.391 291.712a43.423 43.423 0 0 1-15.2-9.037c-3.277-3.47-9.421-10.17 8.402-45.25-31.463 24.571-37.05 69.996-12.479 101.459.57.73 1.155 1.45 1.753 2.157v-.733a32.063 32.063 0 0 1 14.692-26.425 38.313 38.313 0 0 0 11.716-13.55 6.194 6.194 0 0 0 .892-3.158c-.601-1.575-6.792-4.2-9.776-5.463zm81.1-55.579a72.414 72.414 0 0 0-9.434-5.895 67.543 67.543 0 0 0-12.173 16.503 56.99 56.99 0 0 0 4.45 4.287c6.908 6.229 19.783 17.825 11.5 34.388-7.075 14.15-6.875 33.954 4.717 39.75a49.516 49.516 0 0 1 16.206 12.038c23.694-32.125 16.859-77.377-15.266-101.071z"/><path d="M183.917 340.433c-21.583-10.792-23.217-40.921-12.35-62.65 2.008-4.021.583-6.65-7.658-14.075a23.223 23.223 0 0 1-10.308-16.242 44.29 44.29 0 0 1 12.244-23.631 70.112 70.112 0 0 0-34.398.355c-15.919 26.899-21.744 42.632-21.912 47.576a48.315 48.315 0 0 0 8.525 4.233 30.568 30.568 0 0 1 19.05 15.088 20.593 20.593 0 0 1-1.392 16.513 54.264 54.264 0 0 1-16.25 19.408c-6.067 5.046-8.533 7.333-8.533 13.3v15.513c26.594 16.767 60.986 14.373 85.001-5.917a26.4 26.4 0 0 0-12.019-9.471z"/><path d="M503.467 384a8.558 8.558 0 0 0 8.533-8.533V25.6C511.959 11.479 500.521.041 486.4 0H213.333c-14.121.041-25.559 11.479-25.6 25.6v51.2H25.6C11.479 76.841.041 88.279 0 102.4v349.867c.041 14.121 11.479 25.559 25.6 25.6h162.133v8.533c.041 14.121 11.479 25.559 25.6 25.6H486.4c14.121-.041 25.559-11.479 25.6-25.6v-59.733a8.558 8.558 0 0 0-8.533-8.533c-9.426 0-17.067-7.641-17.067-17.067S494.041 384 503.467 384zm-256-366.933h17.067V51.2c0 4.713-3.82 8.533-8.533 8.533s-8.533-3.82-8.533-8.533V17.067zM68.267 128H230.4c4.713 0 8.533 3.82 8.533 8.533s-3.82 8.533-8.533 8.533H68.267c-4.713 0-8.533-3.82-8.533-8.533S63.554 128 68.267 128zm0 34.133H230.4c4.713 0 8.533 3.82 8.533 8.533s-3.82 8.533-8.533 8.533H68.267c-4.713 0-8.533-3.82-8.533-8.533s3.82-8.533 8.533-8.533zm55.514 46.428l.058-.015c45.857-11.972 92.737 15.497 104.709 61.354 11.972 45.857-15.497 92.737-61.354 104.709-45.857 11.972-92.737-15.497-104.709-61.354-11.967-45.835 15.47-92.696 61.296-104.694zM68.267 426.667c-4.713 0-8.533-3.82-8.533-8.533s3.82-8.533 8.533-8.533H230.4c4.713 0 8.533 3.82 8.533 8.533s-3.82 8.533-8.533 8.533H68.267zm230.4 25.6c-.041 14.121-11.479 25.559-25.6 25.6h-8.533v17.067h-17.067v-17.067H204.8V460.8h68.267a8.558 8.558 0 0 0 8.533-8.533V102.4a8.558 8.558 0 0 0-8.533-8.533H204.8V76.8h68.267c14.121.041 25.559 11.479 25.6 25.6v349.867zm40.192-45.142c-.425.341-.858.683-1.367 1.021-.435.339-.926.6-1.45.771a5.302 5.302 0 0 1-1.625.513 10.7 10.7 0 0 1-1.617.171 11.922 11.922 0 0 1-1.708-.171 5.57 5.57 0 0 1-1.533-.512 6.506 6.506 0 0 1-1.542-.771c-.425-.338-.85-.679-1.275-1.021a8.653 8.653 0 0 1 0-12.117l1.275-1.025a6.525 6.525 0 0 1 1.542-.771c.483-.246 1-.417 1.534-.509a8.564 8.564 0 0 1 7.766 14.421zm2.474-40.192a8.533 8.533 0 0 1-17.066 0V204.8a8.533 8.533 0 0 1 17.066 0v162.133zm31.659 40.192a8.568 8.568 0 0 1-12.117-12.116 8.789 8.789 0 0 1 2.817-1.796 8.68 8.68 0 0 1 9.301 1.796 8.652 8.652 0 0 1-.001 12.116zM358.4 366.933V204.8c0-4.713 3.82-8.533 8.533-8.533s8.533 3.82 8.533 8.533v162.133c0 4.713-3.82 8.533-8.533 8.533s-8.533-3.82-8.533-8.533zm48.725 40.192a8.993 8.993 0 0 1-6.059 2.475 8.546 8.546 0 0 1-3.242-.683 7.69 7.69 0 0 1-4.608-4.608 8.04 8.04 0 0 1 0-6.487 7.716 7.716 0 0 1 4.608-4.608 8.555 8.555 0 0 1 9.3 1.795 8.65 8.65 0 0 1 .001 12.116zm-14.592-40.192V204.8a8.533 8.533 0 0 1 17.066 0v162.133c0 4.713-3.82 8.533-8.533 8.533s-8.533-3.82-8.533-8.533zm24.384-234.542c0 .001 0 .001 0 0a8.534 8.534 0 0 1-11.708 2.925l-29.742-17.846v41.13l14.566 14.566a8.532 8.532 0 1 1-11.99 12.142l-.076-.076-11.034-11.032-11.033 11.034a8.534 8.534 0 0 1-12.066-12.067L358.4 158.6v-41.13l-29.742 17.846a8.533 8.533 0 0 1-8.783-14.633L358.4 97.568V68.267c0-4.713 3.82-8.533 8.533-8.533s8.533 3.82 8.533 8.533v29.302l38.525 23.115a8.532 8.532 0 0 1 2.926 11.707zm11.2 273.455a6.313 6.313 0 0 1-.767-1.537 5.613 5.613 0 0 1-.517-1.538 13.16 13.16 0 0 1-.167-1.704 8.533 8.533 0 0 1 17.066 0 11.872 11.872 0 0 1-.175 1.704 5.319 5.319 0 0 1-.508 1.538 6.6 6.6 0 0 1-.767 1.538c-.341.425-.683.85-1.025 1.279a8.653 8.653 0 0 1-12.117 0 14.82 14.82 0 0 1-1.023-1.28zm24.15 89.087H435.2V435.2c0-4.713 3.82-8.533 8.533-8.533s8.533 3.82 8.533 8.533v59.733zm0-128c0 4.713-3.82 8.533-8.533 8.533s-8.533-3.82-8.533-8.533V17.067h17.067v349.866z"/></symbol><symbol viewBox="0 0 400.156 400.155" id="plane" xmlns="http://www.w3.org/2000/svg"><path d="M396.31 49.545c6.088-18.271 4.949-32.354-3.432-42.255-9.897-8.376-23.983-9.514-42.258-3.434-18.273 6.091-34.643 16.368-49.111 30.833L255.83 80.372 65.973 34.978c-3.046-.953-5.901-.192-8.564 2.282L20.862 73.805c-2.091 2.096-2.95 4.665-2.568 7.71.571 3.049 2.19 5.33 4.854 6.854l145.038 79.656-73.948 73.948-55.388-15.128c-.38-.192-1.139-.288-2.282-.288-2.666 0-4.853.855-6.567 2.57L2.594 256.819c-1.903 2.279-2.758 4.66-2.568 7.132.378 3.045 1.615 5.235 3.711 6.57l71.946 53.957 53.959 71.944c1.714 2.098 3.999 3.329 6.854 3.716h.571c2.666 0 4.853-.855 6.567-2.566l27.406-27.404c2.474-2.669 3.236-5.619 2.286-8.854l-15.133-55.388 73.947-73.953 79.66 145.046c1.14 2.475 3.138 3.997 5.995 4.569.568.191 1.235.284 1.999.284 2.279 0 4.09-.572 5.421-1.712l36.552-27.407c3.23-2.663 4.373-5.801 3.426-9.418l-45.68-198.711 45.967-45.965c14.462-14.471 24.739-30.843 30.83-49.114z"/></symbol><symbol viewBox="0 0 212.982 212.982" id="popup-close" xmlns="http://www.w3.org/2000/svg"><path d="M131.804 106.491l75.936-75.936c6.99-6.99 6.99-18.323 0-25.312-6.99-6.99-18.322-6.99-25.312 0L106.491 81.18 30.554 5.242c-6.99-6.99-18.322-6.99-25.312 0-6.989 6.99-6.989 18.323 0 25.312l75.937 75.936-75.937 75.937c-6.989 6.99-6.989 18.323 0 25.312 6.99 6.99 18.322 6.99 25.312 0l75.937-75.937 75.937 75.937c6.989 6.99 18.322 6.99 25.312 0 6.99-6.99 6.99-18.322 0-25.312l-75.936-75.936z" fill-rule="evenodd" clip-rule="evenodd"/></symbol><symbol viewBox="0 0 512 512" id="shield" xmlns="http://www.w3.org/2000/svg"><path d="M96 206c-5.52 0-10 4.48-10 10s4.48 10 10 10 10-4.48 10-10-4.48-10-10-10z"/><path d="M456 86C347.028 86 288.467 27.77 269.223 8.635c-3.917-3.896-5.884-5.851-7.956-7.135a10 10 0 0 0-10.536 0c-1.425.883-2.573 2.004-5.346 4.714-7.125 6.96-23.809 23.261-49.607 39.396C152.909 72.411 105.88 86 56 86c-5.523 0-10 4.477-10 10v131.19c0 62.98 19.868 122.975 57.458 173.5 40.764 54.777 93.917 94.158 149.668 110.888a10.008 10.008 0 0 0 5.748 0c55.751-16.73 108.904-56.111 149.669-110.889C446.132 350.165 466 290.17 466 227.19V96c0-5.523-4.477-10-10-10zm-10 141.19c0 58.646-18.501 114.514-53.502 161.56C354.992 439.148 306.62 475.548 256 491.537c-50.62-15.989-98.992-52.389-136.497-102.786C84.501 341.704 66 285.836 66 227.19V105.83c49.975-1.707 97.155-16.238 140.383-43.262 24.182-15.125 40.808-30.308 49.666-38.83 20.972 20.83 80.789 78.74 189.951 82.108V227.19z"/><path d="M417.101 123.891c-55.041-6.093-107.259-28.366-155.206-66.201a9.998 9.998 0 0 0-12.272-.091c-47.491 36.347-102.471 59.819-154.813 66.092A10 10 0 0 0 86 133.62V176c0 5.523 4.477 10 10 10s10-4.477 10-10v-33.65c38.045-5.792 92.067-21.909 149.609-64.239 46.666 35.36 97.186 57.038 150.391 64.54v84.54c0 49.977-15.769 97.578-45.605 137.663-28.574 38.431-64.609 66.524-104.395 81.434-39.784-14.909-75.815-42.995-104.388-81.418-24.073-32.345-39.285-70.412-43.992-110.087-.65-5.484-5.621-9.412-11.108-8.752-5.484.65-9.403 5.624-8.752 11.108 5.118 43.144 21.65 84.525 47.806 119.669 31.744 42.687 72.234 73.652 117.094 89.548a9.992 9.992 0 0 0 6.68 0c44.863-15.897 85.357-46.87 117.102-89.565C408.863 333.232 426 281.501 426 227.19v-93.36a10 10 0 0 0-8.899-9.939z"/><path d="M355.271 219.209a10.001 10.001 0 0 0-8.073-6.806l-57.096-8.294-25.524-51.734a10 10 0 1 0-17.934-.002l-25.533 51.736-57.097 8.294a10.001 10.001 0 0 0-5.542 17.057l41.315 40.271-9.751 56.868a9.998 9.998 0 0 0 9.857 11.69 9.98 9.98 0 0 0 4.653-1.149l51.065-26.853 51.055 26.852a10 10 0 0 0 14.511-10.541l-9.751-56.868 41.315-40.271a9.999 9.999 0 0 0 2.53-10.25zm-61.571 39.87a9.997 9.997 0 0 0-2.876 8.851l7.214 42.076-37.774-19.866a10.002 10.002 0 0 0-9.309 0l-37.785 19.869 7.215-42.078a9.997 9.997 0 0 0-2.876-8.851l-30.569-29.796 42.247-6.137a10.002 10.002 0 0 0 7.53-5.47l18.891-38.277 18.884 38.276a9.998 9.998 0 0 0 7.53 5.472l42.247 6.137-30.569 29.794z"/></symbol><symbol viewBox="0 0 96.496 96.496" id="vk" xmlns="http://www.w3.org/2000/svg"><path d="M92.499 65.178c-2.873-3.446-6.254-6.387-9.453-9.51-2.886-2.815-3.068-4.448-.748-7.697 2.532-3.546 5.255-6.956 7.81-10.486 2.385-3.299 4.823-6.589 6.078-10.539.796-2.513.092-3.623-2.485-4.063-.444-.077-.903-.081-1.355-.081l-15.289-.018c-1.883-.028-2.924.793-3.59 2.462-.899 2.256-1.826 4.51-2.897 6.687-2.43 4.936-5.144 9.707-8.949 13.747-.839.891-1.767 2.017-3.169 1.553-1.754-.64-2.271-3.53-2.242-4.507l-.015-17.647c-.34-2.521-.899-3.645-3.402-4.135l-15.882.003c-2.12 0-3.183.819-4.315 2.145-.653.766-.85 1.263.492 1.517 2.636.5 4.121 2.206 4.515 4.849.632 4.223.588 8.463.224 12.703-.107 1.238-.32 2.473-.811 3.629-.768 1.817-2.008 2.187-3.637 1.069-1.475-1.012-2.511-2.44-3.525-3.874-3.809-5.382-6.848-11.186-9.326-17.285-.716-1.762-1.951-2.83-3.818-2.859a389.727 389.727 0 0 0-13.762.004c-2.76.052-3.583 1.392-2.459 3.894 4.996 11.113 10.557 21.917 17.816 31.759 3.727 5.051 8.006 9.51 13.534 12.67 6.265 3.582 13.009 4.66 20.112 4.328 3.326-.156 4.325-1.021 4.479-4.336.104-2.268.361-4.523 1.48-6.561 1.098-2 2.761-2.381 4.678-1.137.959.623 1.767 1.416 2.53 2.252 1.872 2.048 3.677 4.158 5.62 6.137 2.437 2.48 5.324 3.945 8.954 3.646l14.052.003c2.264-.148 3.438-2.924 2.138-5.451-.913-1.77-2.111-3.346-3.383-4.871z"/></symbol></svg>