<?xml version="1.0" encoding="utf-8"?><svg width="400" height="376" viewBox="0 0 400 376" xmlns="http://www.w3.org/2000/svg" xmlns:xlink="http://www.w3.org/1999/xlink"><svg width="12" height="12" viewBox="0 0 451.846 451.847" id="btn-arrow-d" xmlns="http://www.w3.org/2000/svg"><path d="M345.441 248.292L151.154 442.573c-12.359 12.365-32.397 12.365-44.75 0-12.354-12.354-12.354-32.391 0-44.744L278.318 225.92 106.409 54.017c-12.354-12.359-12.354-32.394 0-44.748 12.354-12.359 32.391-12.359 44.75 0l194.287 194.284c6.177 6.18 9.262 14.271 9.262 22.366 0 8.099-3.091 16.196-9.267 22.373z" fill="#868e96"/></svg><svg width="12" height="12" viewBox="0 0 451.846 451.847" id="btn-arrow-d-g" x="12" y="12" xmlns="http://www.w3.org/2000/svg"><path d="M345.441 248.292L151.154 442.573c-12.359 12.365-32.397 12.365-44.75 0-12.354-12.354-12.354-32.391 0-44.744L278.318 225.92 106.409 54.017c-12.354-12.359-12.354-32.394 0-44.748 12.354-12.359 32.391-12.359 44.75 0l194.287 194.284c6.177 6.18 9.262 14.271 9.262 22.366 0 8.099-3.091 16.196-9.267 22.373z" fill="#8FD16B"/></svg><svg viewBox="0 0 26 26" width="16" height="16" id="checked" x="24" y="24" xmlns="http://www.w3.org/2000/svg"><path d="M.3 14c-.2-.2-.3-.5-.3-.7s.1-.5.3-.7l1.4-1.4c.4-.4 1-.4 1.4 0l.1.1 5.5 5.9c.2.2.5.2.7 0L22.8 3.3h.1c.4-.4 1-.4 1.4 0l1.4 1.4c.4.4.4 1 0 1.4l-16 16.6c-.2.2-.4.3-.7.3-.3 0-.5-.1-.7-.3L.5 14.3.3 14z" fill="#007bff"/></svg><svg viewBox="0 0 512.001 512.001" width="16" height="16" id="doc" x="40" y="40" xmlns="http://www.w3.org/2000/svg"><path d="M463.996 126.864L340.192 3.061A10.452 10.452 0 0 0 332.803 0H95.726C67.724 0 44.944 22.782 44.944 50.784v410.434c0 28.001 22.781 50.783 50.783 50.783h320.547c28.002 0 50.783-22.781 50.783-50.783V134.253a10.458 10.458 0 0 0-3.061-7.389zM343.255 35.679l88.127 88.126H373.14c-7.984 0-15.49-3.109-21.134-8.753-5.643-5.643-8.752-13.148-8.751-21.131V35.679zm102.903 425.538c0 16.479-13.406 29.885-29.884 29.885H95.726c-16.479 0-29.885-13.406-29.885-29.885V50.784c.001-16.479 13.407-29.886 29.885-29.886h226.631v73.021c-.002 13.565 5.28 26.318 14.871 35.909 9.592 9.592 22.345 14.874 35.911 14.874h73.018v316.515z" fill="#8fd16b"/><path d="M275.092 351.492h-4.678c-5.77 0-10.449 4.678-10.449 10.449s4.679 10.449 10.449 10.449h4.678c5.77 0 10.449-4.678 10.449-10.449s-4.679-10.449-10.449-10.449zm-38.482 0H135.118c-5.77 0-10.449 4.678-10.449 10.449s4.679 10.449 10.449 10.449H236.61c5.77 0 10.449-4.678 10.449-10.449s-4.678-10.449-10.449-10.449zm140.272-47.745H135.119c-5.77 0-10.449 4.678-10.449 10.449s4.679 10.449 10.449 10.449h241.763c5.77 0 10.449-4.678 10.449-10.449s-4.679-10.449-10.449-10.449zm0-47.747H135.119c-5.77 0-10.449 4.678-10.449 10.449s4.679 10.449 10.449 10.449h241.763c5.77 0 10.449-4.678 10.449-10.449S382.652 256 376.882 256zm0-47.745H135.119c-5.77 0-10.449 4.678-10.449 10.449s4.679 10.449 10.449 10.449h241.763c5.77 0 10.449-4.678 10.449-10.449s-4.679-10.449-10.449-10.449z" fill="#8fd16b"/></svg><svg viewBox="0 0 291.319 291.319" width="32" height="32" id="facebook" x="56" y="56" xmlns="http://www.w3.org/2000/svg"><path d="M145.659 0c80.45 0 145.66 65.219 145.66 145.66 0 80.45-65.21 145.659-145.66 145.659S0 226.109 0 145.66C0 65.219 65.21 0 145.659 0z" fill="#3b5998"/><path d="M163.394 100.277h18.772v-27.73h-22.067v.1c-26.738.947-32.218 15.977-32.701 31.763h-.055v13.847h-18.207v27.156h18.207v72.793h27.439v-72.793h22.477l4.342-27.156h-26.81v-8.366c0-5.335 3.55-9.614 8.603-9.614z" fill="#fff"/></svg><svg viewBox="0 0 112.196 112.196" width="32" height="32" id="google-plus" x="88" y="88" xmlns="http://www.w3.org/2000/svg"><circle cx="56.098" cy="56.097" r="56.098" fill="#dc4e41"/><path d="M19.531 58.608c-.199 9.652 6.449 18.863 15.594 21.867 8.614 2.894 19.205.729 24.937-6.648 4.185-5.169 5.136-12.06 4.683-18.498-7.377-.066-14.754-.044-22.12-.033-.012 2.628 0 5.246.011 7.874 4.417.122 8.835.066 13.252.155-1.115 3.821-3.655 7.377-7.51 8.757-7.443 3.28-16.94-1.005-19.282-8.813-2.827-7.477 1.801-16.5 9.442-18.675 4.738-1.667 9.619.21 13.673 2.673 2.054-1.922 3.976-3.976 5.864-6.052-4.606-3.854-10.525-6.217-16.61-5.698-11.939.142-22.387 11.164-21.934 23.091zm59.571-9.94c-.022 2.198-.045 4.407-.056 6.604-2.209.022-4.406.033-6.604.044v6.582c2.198.011 4.407.022 6.604.045.022 2.198.022 4.395.044 6.604 2.187 0 4.385-.011 6.582 0 .012-2.209.022-4.406.045-6.615l6.604-.033v-6.582c-2.197-.011-4.406-.022-6.604-.044-.012-2.198-.033-4.407-.045-6.604l-6.57-.001z" fill="#dc4e41"/><path d="M19.531 58.608c-.453-11.927 9.994-22.949 21.933-23.092 6.085-.519 12.005 1.844 16.61 5.698-1.889 2.077-3.811 4.13-5.864 6.052-4.054-2.463-8.935-4.34-13.673-2.673-7.642 2.176-12.27 11.199-9.442 18.675 2.342 7.808 11.839 12.093 19.282 8.813 3.854-1.38 6.395-4.936 7.51-8.757-4.417-.088-8.835-.033-13.252-.155-.011-2.628-.022-5.246-.011-7.874 7.366-.011 14.743-.033 22.12.033.453 6.439-.497 13.33-4.683 18.498-5.732 7.377-16.322 9.542-24.937 6.648-9.143-3.003-15.792-12.214-15.593-21.866zm59.571-9.94h6.57c.012 2.198.033 4.407.045 6.604 2.197.022 4.406.033 6.604.044v6.582l-6.604.033c-.022 2.209-.033 4.406-.045 6.615-2.197-.011-4.396 0-6.582 0-.021-2.209-.021-4.406-.044-6.604-2.197-.023-4.406-.033-6.604-.045v-6.582c2.198-.011 4.396-.022 6.604-.044.011-2.196.033-4.405.056-6.603z" fill="#fff"/></svg><svg viewBox="0 0 469.333 469.333" width="12" height="12" id="icon-boat" x="120" y="120" xmlns="http://www.w3.org/2000/svg"><path d="M62.825 384h1.173c34.133 0 64.533-18.773 85.333-42.667 20.8 23.893 51.2 42.667 85.333 42.667s64.533-18.773 85.333-42.667C340.905 365.227 371.092 384 405.332 384h1.173l40.427-142.613c1.813-5.44 1.28-11.413-1.28-16.533-2.667-5.12-7.253-8.96-12.8-10.56l-27.52-9.067v-98.56c0-23.573-19.093-42.667-42.667-42.667h-64V0h-128v64h-64c-23.573 0-42.667 19.093-42.667 42.667v98.56l-27.413 8.96c-5.547 1.707-10.133 5.44-12.8 10.56-2.667 5.12-3.093 11.093-1.28 16.533L62.825 384zm43.84-277.333h256v84.587l-128-41.92-128 41.92v-84.587zM319.998 398.4c-52.053 36.48-118.613 36.48-170.667 0-26.027 18.24-55.68 28.267-85.333 28.267H21.332v42.667h42.667c29.333 0 58.453-7.36 85.333-21.227 53.76 27.627 116.907 27.627 170.667 0 26.88 13.76 56 21.227 85.333 21.227h42.667v-42.667h-42.667c-29.654 0-59.307-10.027-85.334-28.267z" fill="#333"/></svg><svg viewBox="0 0 405.333 405.333" width="12" height="12" id="icon-bus" x="132" y="132" xmlns="http://www.w3.org/2000/svg"><path d="M202.667 0C108.373 0 32 10.667 32 85.333v213.333c0 18.88 8.32 35.627 21.333 47.36V384c0 11.733 9.6 21.333 21.333 21.333H96c11.84 0 21.333-9.6 21.333-21.333v-21.333H288V384c0 11.733 9.493 21.333 21.333 21.333h21.333c11.733 0 21.333-9.6 21.333-21.333v-37.973c13.013-11.733 21.333-28.48 21.333-47.36V85.333C373.333 10.667 296.96 0 202.667 0zm-96 320c-17.707 0-32-14.293-32-32s14.293-32 32-32 32 14.293 32 32-14.294 32-32 32zm192 0c-17.707 0-32-14.293-32-32s14.293-32 32-32 32 14.293 32 32-14.294 32-32 32zm32-128h-256V85.333h256V192z" fill="#333"/></svg><svg viewBox="0 0 14 14" width="12" height="12" id="icon-email" x="144" y="144" xmlns="http://www.w3.org/2000/svg"><g fill="#333"><path d="M7 9L5.268 7.484.316 11.729c.18.167.423.271.691.271h11.986c.267 0 .509-.104.688-.271L8.732 7.484 7 9z"/><path d="M13.684 2.271A1.007 1.007 0 0 0 12.993 2H1.007c-.267 0-.509.104-.689.273L7 8l6.684-5.729zM0 2.878v8.308l4.833-4.107zm9.167 4.201L14 11.186V2.875z"/></g></svg><svg viewBox="0 0 14 14" width="12" height="12" id="icon-email-g" x="156" y="156" xmlns="http://www.w3.org/2000/svg"><g fill="#888"><path d="M7 9L5.268 7.484.316 11.729c.18.167.423.271.691.271h11.986c.267 0 .509-.104.688-.271L8.732 7.484 7 9z"/><path d="M13.684 2.271A1.007 1.007 0 0 0 12.993 2H1.007c-.267 0-.509.104-.689.273L7 8l6.684-5.729zM0 2.878v8.308l4.833-4.107zm9.167 4.201L14 11.186V2.875z"/></g></svg><svg width="12" height="12" viewBox="0 0 460.298 460.297" id="icon-home" x="168" y="168" xmlns="http://www.w3.org/2000/svg"><g fill="#333"><path d="M230.149 120.939L65.986 256.274c0 .191-.048.472-.144.855-.094.38-.144.656-.144.852v137.041c0 4.948 1.809 9.236 5.426 12.847 3.616 3.613 7.898 5.431 12.847 5.431h109.63V303.664h73.097v109.64h109.629c4.948 0 9.236-1.814 12.847-5.435 3.617-3.607 5.432-7.898 5.432-12.847V257.981c0-.76-.104-1.334-.288-1.707L230.149 120.939z"/><path d="M457.122 225.438L394.6 173.476V56.989c0-2.663-.856-4.853-2.574-6.567-1.704-1.712-3.894-2.568-6.563-2.568h-54.816c-2.666 0-4.855.856-6.57 2.568-1.711 1.714-2.566 3.905-2.566 6.567v55.673l-69.662-58.245c-6.084-4.949-13.318-7.423-21.694-7.423-8.375 0-15.608 2.474-21.698 7.423L3.172 225.438c-1.903 1.52-2.946 3.566-3.14 6.136-.193 2.568.472 4.811 1.997 6.713l17.701 21.128c1.525 1.712 3.521 2.759 5.996 3.142 2.285.192 4.57-.476 6.855-1.998L230.149 95.817l197.57 164.741c1.526 1.328 3.521 1.991 5.996 1.991h.858c2.471-.376 4.463-1.43 5.996-3.138l17.703-21.125c1.522-1.906 2.189-4.145 1.991-6.716-.195-2.563-1.242-4.609-3.141-6.132z"/></g></svg><svg width="12" height="12" viewBox="0 0 460.298 460.297" id="icon-home-g" x="180" y="180" xmlns="http://www.w3.org/2000/svg"><g fill="#888"><path d="M230.149 120.939L65.986 256.274c0 .191-.048.472-.144.855-.094.38-.144.656-.144.852v137.041c0 4.948 1.809 9.236 5.426 12.847 3.616 3.613 7.898 5.431 12.847 5.431h109.63V303.664h73.097v109.64h109.629c4.948 0 9.236-1.814 12.847-5.435 3.617-3.607 5.432-7.898 5.432-12.847V257.981c0-.76-.104-1.334-.288-1.707L230.149 120.939z"/><path d="M457.122 225.438L394.6 173.476V56.989c0-2.663-.856-4.853-2.574-6.567-1.704-1.712-3.894-2.568-6.563-2.568h-54.816c-2.666 0-4.855.856-6.57 2.568-1.711 1.714-2.566 3.905-2.566 6.567v55.673l-69.662-58.245c-6.084-4.949-13.318-7.423-21.694-7.423-8.375 0-15.608 2.474-21.698 7.423L3.172 225.438c-1.903 1.52-2.946 3.566-3.14 6.136-.193 2.568.472 4.811 1.997 6.713l17.701 21.128c1.525 1.712 3.521 2.759 5.996 3.142 2.285.192 4.57-.476 6.855-1.998L230.149 95.817l197.57 164.741c1.526 1.328 3.521 1.991 5.996 1.991h.858c2.471-.376 4.463-1.43 5.996-3.138l17.703-21.125c1.522-1.906 2.189-4.145 1.991-6.716-.195-2.563-1.242-4.609-3.141-6.132z"/></g></svg><svg viewBox="0 0 27.442 27.442" width="12" height="12" id="icon-mobile" x="192" y="192" xmlns="http://www.w3.org/2000/svg"><path d="M19.494 0H7.948a1.997 1.997 0 0 0-1.997 1.999v23.446c0 1.102.892 1.997 1.997 1.997h11.546a1.998 1.998 0 0 0 1.997-1.997V1.999A1.999 1.999 0 0 0 19.494 0zm-8.622 1.214h5.7c.144 0 .261.215.261.481s-.117.482-.261.482h-5.7c-.145 0-.26-.216-.26-.482s.115-.481.26-.481zm2.85 24.255a1.275 1.275 0 1 1 0-2.55 1.275 1.275 0 0 1 0 2.55zm6.273-4.369H7.448V3.373h12.547V21.1z" fill="#333"/></svg><svg viewBox="0 0 578.106 578.106" width="12" height="12" id="icon-phone" x="204" y="204" xmlns="http://www.w3.org/2000/svg"><path d="M577.83 456.128c1.225 9.385-1.635 17.545-8.568 24.48l-81.396 80.781c-3.672 4.08-8.465 7.551-14.381 10.404-5.916 2.857-11.729 4.693-17.439 5.508-.408 0-1.635.105-3.676.309-2.037.203-4.689.307-7.953.307-7.754 0-20.301-1.326-37.641-3.979s-38.555-9.182-63.645-19.584c-25.096-10.404-53.553-26.012-85.376-46.818-31.823-20.805-65.688-49.367-101.592-85.68-28.56-28.152-52.224-55.08-70.992-80.783-18.768-25.705-33.864-49.471-45.288-71.299-11.425-21.828-19.993-41.616-25.705-59.364S4.59 177.362 2.55 164.51-.306 141.56.102 134.216c.408-7.344.612-11.424.612-12.24.816-5.712 2.652-11.526 5.508-17.442s6.324-10.71 10.404-14.382L98.022 8.756c5.712-5.712 12.24-8.568 19.584-8.568 5.304 0 9.996 1.53 14.076 4.59s7.548 6.834 10.404 11.322l65.484 124.236c3.672 6.528 4.692 13.668 3.06 21.42-1.632 7.752-5.1 14.28-10.404 19.584l-29.988 29.988c-.816.816-1.53 2.142-2.142 3.978s-.918 3.366-.918 4.59c1.632 8.568 5.304 18.36 11.016 29.376 4.896 9.792 12.444 21.726 22.644 35.802s24.684 30.293 43.452 48.653c18.36 18.77 34.68 33.354 48.96 43.76 14.277 10.4 26.215 18.053 35.803 22.949 9.588 4.896 16.932 7.854 22.031 8.871l7.648 1.531c.816 0 2.145-.307 3.979-.918 1.836-.613 3.162-1.326 3.979-2.143l34.883-35.496c7.348-6.527 15.912-9.791 25.705-9.791 6.938 0 12.443 1.223 16.523 3.672h.611l118.115 69.768c8.571 5.308 13.67 12.038 15.303 20.198z" fill="#333"/></svg><svg viewBox="0 0 578.106 578.106" width="12" height="12" id="icon-phone-g" x="216" y="216" xmlns="http://www.w3.org/2000/svg"><path d="M577.83 456.128c1.225 9.385-1.635 17.545-8.568 24.48l-81.396 80.781c-3.672 4.08-8.465 7.551-14.381 10.404-5.916 2.857-11.729 4.693-17.439 5.508-.408 0-1.635.105-3.676.309-2.037.203-4.689.307-7.953.307-7.754 0-20.301-1.326-37.641-3.979s-38.555-9.182-63.645-19.584c-25.096-10.404-53.553-26.012-85.376-46.818-31.823-20.805-65.688-49.367-101.592-85.68-28.56-28.152-52.224-55.08-70.992-80.783-18.768-25.705-33.864-49.471-45.288-71.299-11.425-21.828-19.993-41.616-25.705-59.364S4.59 177.362 2.55 164.51-.306 141.56.102 134.216c.408-7.344.612-11.424.612-12.24.816-5.712 2.652-11.526 5.508-17.442s6.324-10.71 10.404-14.382L98.022 8.756c5.712-5.712 12.24-8.568 19.584-8.568 5.304 0 9.996 1.53 14.076 4.59s7.548 6.834 10.404 11.322l65.484 124.236c3.672 6.528 4.692 13.668 3.06 21.42-1.632 7.752-5.1 14.28-10.404 19.584l-29.988 29.988c-.816.816-1.53 2.142-2.142 3.978s-.918 3.366-.918 4.59c1.632 8.568 5.304 18.36 11.016 29.376 4.896 9.792 12.444 21.726 22.644 35.802s24.684 30.293 43.452 48.653c18.36 18.77 34.68 33.354 48.96 43.76 14.277 10.4 26.215 18.053 35.803 22.949 9.588 4.896 16.932 7.854 22.031 8.871l7.648 1.531c.816 0 2.145-.307 3.979-.918 1.836-.613 3.162-1.326 3.979-2.143l34.883-35.496c7.348-6.527 15.912-9.791 25.705-9.791 6.938 0 12.443 1.223 16.523 3.672h.611l118.115 69.768c8.571 5.308 13.67 12.038 15.303 20.198z" fill="#888"/></svg><svg width="12" height="12" viewBox="0 0 510 510" id="icon-plane" x="228" y="228" xmlns="http://www.w3.org/2000/svg"><path d="M510 255c0-20.4-17.85-38.25-38.25-38.25H331.5L204 12.75h-51l63.75 204H76.5l-38.25-51H0L25.5 255 0 344.25h38.25l38.25-51h140.25l-63.75 204h51l127.5-204h140.25c20.4 0 38.25-17.85 38.25-38.25z" fill="#333"/></svg><svg width="40" height="16" viewBox="0 0 400.004 400.004" id="left-arrow" x="240" y="240" xmlns="http://www.w3.org/2000/svg"><path d="M382.688 182.686H59.116l77.209-77.214c6.764-6.76 6.764-17.726 0-24.485-6.764-6.764-17.73-6.764-24.484 0L5.073 187.757c-6.764 6.76-6.764 17.727 0 24.485l106.768 106.775a17.252 17.252 0 0 0 12.242 5.072c4.43 0 8.861-1.689 12.242-5.072 6.764-6.76 6.764-17.726 0-24.484l-77.209-77.218h323.572c9.562 0 17.316-7.753 17.316-17.315 0-9.562-7.753-17.314-17.316-17.314z" fill="#FFF"/></svg><svg viewBox="0 0 382.117 382.117" width="16" height="16" id="mail" x="280" y="256" xmlns="http://www.w3.org/2000/svg"><path d="M336.764 45.945H45.354C20.346 45.945 0 65.484 0 89.5v203.117c0 24.016 20.346 43.555 45.354 43.555h291.41c25.008 0 45.353-19.539 45.353-43.555V89.5c0-24.016-20.345-43.555-45.353-43.555zm0 251.775H45.354c-3.676 0-6.9-2.384-6.9-5.103V116.359l131.797 111.27a15.014 15.014 0 0 0 9.676 3.538l22.259.001c3.536 0 6.974-1.257 9.677-3.539l131.803-111.274v176.264c-.002 2.717-3.227 5.101-6.902 5.101zM191.059 192.987L62.87 84.397h256.378l-128.189 108.59z"/></svg><svg width="16" height="16" viewBox="0 0 348.077 348.077" id="phone-receiver" x="296" y="272" xmlns="http://www.w3.org/2000/svg"><path d="M340.273 275.083l-53.755-53.761c-10.707-10.664-28.438-10.34-39.518.744l-27.082 27.076a792.327 792.327 0 0 1-5.344-2.973c-17.102-9.476-40.509-22.464-65.14-47.113-24.704-24.701-37.704-48.144-47.209-65.257-1.003-1.813-1.964-3.561-2.913-5.221l18.176-18.149 8.936-8.947c11.097-11.1 11.403-28.826.721-39.521L73.39 8.194c-10.682-10.68-28.421-10.356-39.518.744l-15.15 15.237.414.411c-5.08 6.482-9.325 13.958-12.484 22.02C3.74 54.28 1.927 61.603 1.098 68.941-6 127.785 20.89 181.564 93.866 254.541c100.875 100.868 182.167 93.248 185.674 92.876 7.638-.913 14.958-2.738 22.397-5.627 7.992-3.122 15.463-7.361 21.941-12.43l.331.294 15.348-15.029c11.074-11.098 11.393-28.83.716-39.542z" fill="#FFDA44"/></svg><svg viewBox="0 0 250.313 250.313" width="16" height="16" id="searcher" x="312" y="288" xmlns="http://www.w3.org/2000/svg"><path d="M244.186 214.604l-54.379-54.378c-.289-.289-.628-.491-.93-.76 10.7-16.231 16.945-35.66 16.945-56.554C205.822 46.075 159.747 0 102.911 0S0 46.075 0 102.911c0 56.835 46.074 102.911 102.91 102.911 20.895 0 40.323-6.245 56.554-16.945.269.301.47.64.759.929l54.38 54.38c8.169 8.168 21.413 8.168 29.583 0 8.168-8.169 8.168-21.413 0-29.582zm-141.275-44.458c-37.134 0-67.236-30.102-67.236-67.235 0-37.134 30.103-67.236 67.236-67.236 37.132 0 67.235 30.103 67.235 67.236s-30.103 67.235-67.235 67.235z" fill="#FFF" fill-rule="evenodd" clip-rule="evenodd"/></svg><svg viewBox="0 0 54 54" width="40" height="40" id="slider-arrow" x="328" y="304" xmlns="http://www.w3.org/2000/svg"><g fill="#8fd16b"><path d="M27 1c14.359 0 26 11.641 26 26S41.359 53 27 53 1 41.359 1 27 12.641 1 27 1z"/><path d="M27 54C12.112 54 0 41.888 0 27S12.112 0 27 0s27 12.112 27 27-12.112 27-27 27zm0-52C13.215 2 2 13.215 2 27s11.215 25 25 25 25-11.215 25-25S40.785 2 27 2z"/></g><path d="M31.706 40a.997.997 0 0 1-.707-.293L19.501 28.209a1.711 1.711 0 0 1 0-2.418l11.498-11.498a.999.999 0 1 1 1.414 1.414L21.12 27l11.293 11.293A.999.999 0 0 1 31.706 40z" fill="#fff"/></svg><svg viewBox="0 0 291.319 291.319" width="32" height="32" id="twitter" x="368" y="344" xmlns="http://www.w3.org/2000/svg"><path d="M145.659 0c80.45 0 145.66 65.219 145.66 145.66 0 80.45-65.21 145.659-145.66 145.659S0 226.109 0 145.66C0 65.219 65.21 0 145.659 0z" fill="#26a6d1"/><path d="M236.724 98.129c-6.363 2.749-13.21 4.597-20.392 5.435 7.338-4.27 12.964-11.016 15.613-19.072a71.965 71.965 0 0 1-22.55 8.366c-6.473-6.691-15.695-10.87-25.909-10.87-19.591 0-35.486 15.413-35.486 34.439 0 2.704.31 5.335.919 7.857-29.496-1.438-55.66-15.158-73.157-35.996a33.46 33.46 0 0 0-4.807 17.315c0 11.944 6.263 22.504 15.786 28.668-5.826-.182-11.289-1.721-16.086-4.315v.437c0 16.696 12.235 30.616 28.476 33.784a36.707 36.707 0 0 1-9.35 1.211c-2.285 0-4.506-.209-6.673-.619 4.515 13.692 17.625 23.651 33.165 23.925-12.153 9.249-27.457 14.748-44.089 14.748-2.868 0-5.69-.164-8.476-.482 15.722 9.777 34.367 15.485 54.422 15.485 65.292 0 100.997-52.51 100.997-98.029l-.1-4.461a70.838 70.838 0 0 0 17.697-17.826z" fill="#fff"/></svg></svg>